<svg width="8381" height="4967" viewBox="0 0 8381 4967" fill="none" xmlns="http://www.w3.org/2000/svg">
<rect opacity="0.7" width="8381" height="4967" fill="black"/>
<path fill-rule="evenodd" clip-rule="evenodd" d="M5620.34 3861.32L5500.03 3975.37L5875.8 4123.04L5620.34 3861.32Z" fill="#812839"/>
<path fill-rule="evenodd" clip-rule="evenodd" d="M5491.69 3987.9L5153.15 4330.6L5430.24 4621.23L5903.14 4153.52L5491.69 3987.9Z" fill="#F63832"/>
<path fill-rule="evenodd" clip-rule="evenodd" d="M5614.48 4291.97L5610.14 4253.54L5591 4231.2L5552.43 4217.54L5550.86 4208.85L5540.73 4180.94L5521.91 4164.15L5484.93 4154.48L5456.24 4169.3L5437.25 4192.25L5426.78 4247.04L5424.79 4290.93L5434.52 4339.02L5462.59 4341.79L5533.03 4346.13L5594.14 4321.79L5614.45 4291.98" fill="#F1CA25"/>
<path fill-rule="evenodd" clip-rule="evenodd" d="M5172.15 4334.6L5508.13 3998.62L5867.1 4158.17L5431.42 4593.85L5172.15 4334.6ZM5547.87 3958.85L5585.57 3996.57L5533.38 3973.4L5547.87 3958.85ZM5618.58 3888.15L5665.71 3935.29L5618.58 3982.41L5571.45 3935.29L5618.58 3888.15ZM5689.28 3958.85L5736.45 4005.99L5696.56 4045.89L5670.43 4034.26L5642.2 4005.99L5689.28 3958.85ZM5807.15 4076.69L5794.45 4089.39L5729.16 4060.38L5760 4029.58L5807.15 4076.69ZM5830.71 4100.28L5840.12 4109.69L5827.09 4103.9L5830.71 4100.28ZM5924.99 4147.4L5830.71 4053.14L5783.56 4005.99L5689.28 3911.71L5618.58 3841L5524.29 3935.29L5500.73 3958.85L5125 4334.6L5431.42 4641L5830.71 4241.69L5924.99 4147.4Z" fill="#070505"/>
<path fill-rule="evenodd" clip-rule="evenodd" d="M5580.3 4303.55C5566.23 4317.61 5539.79 4325.03 5503.83 4325.03C5484.55 4324.88 5465.32 4323.07 5446.35 4319.62C5443.59 4304.21 5441.87 4288.64 5441.18 4273C5439.54 4232.04 5447.1 4201.06 5462.42 4185.73C5465.64 4182.49 5469.47 4179.93 5473.68 4178.18C5477.9 4176.43 5482.42 4175.54 5486.98 4175.55C5491.55 4175.54 5496.07 4176.43 5500.28 4178.18C5504.5 4179.93 5508.32 4182.49 5511.54 4185.73C5514.82 4188.99 5517.4 4192.87 5519.14 4197.15C5520.88 4201.43 5521.75 4206.01 5521.68 4210.63L5521.34 4244.65L5555.36 4244.28H5555.73C5560.29 4244.27 5564.81 4245.17 5569.03 4246.92C5573.25 4248.66 5577.07 4251.23 5580.29 4254.47C5583.51 4257.69 5586.07 4261.51 5587.81 4265.72C5589.55 4269.93 5590.44 4274.45 5590.42 4279C5590.44 4283.56 5589.55 4288.08 5587.82 4292.29C5586.08 4296.5 5583.52 4300.33 5580.3 4303.55ZM5603.85 4230.89C5597.54 4224.57 5590.03 4219.55 5581.78 4216.13C5573.52 4212.72 5564.67 4210.96 5555.73 4210.96H5555.01C5555.11 4201.91 5553.39 4192.93 5549.97 4184.55C5546.55 4176.16 5541.49 4168.55 5535.08 4162.15C5528.77 4155.82 5521.27 4150.8 5513.01 4147.38C5504.75 4143.96 5495.9 4142.21 5486.96 4142.22C5478.02 4142.21 5469.16 4143.96 5460.9 4147.38C5452.64 4150.8 5445.13 4155.82 5438.81 4162.15C5383.84 4217.16 5418.21 4347.77 5418.21 4347.77C5446.25 4354.56 5474.97 4358.12 5503.81 4358.38C5540.01 4358.38 5579.39 4351.6 5603.81 4327.13C5610.13 4320.81 5615.15 4313.31 5618.57 4305.05C5622 4296.79 5623.76 4287.94 5623.76 4279C5623.76 4270.05 5622 4261.2 5618.57 4252.94C5615.15 4244.68 5610.13 4237.18 5603.81 4230.86" fill="#070505"/>
<path fill-rule="evenodd" clip-rule="evenodd" d="M3925.08 2624.4L3859.79 2589.77L3848.37 2632.03L3866.97 2758.94L3919.68 2791.17L3999.47 2751.3L4045.64 2660.81L3925.08 2624.42" fill="#EF204D"/>
<path fill-rule="evenodd" clip-rule="evenodd" d="M4041.95 2633.31L3997.57 2603.63L3895.85 2576.12L3877.4 2594.53L3916.77 2627.14L4040.6 2651.39L4041.95 2633.3" fill="#E21840"/>
<path fill-rule="evenodd" clip-rule="evenodd" d="M3634.94 2642.99L3561.07 2641.84L3570.09 2684.69L3644.39 2789.26L3705.98 2793.97L3758.92 2722.19L3758.87 2620.58L3634.94 2643.02" fill="#EF204D"/>
<path fill-rule="evenodd" clip-rule="evenodd" d="M3743.07 2597.79L3690.05 2591.52L3586.95 2613.29L3578.88 2638.08L3628.79 2649.21L3750.1 2614.46L3743.07 2597.77" fill="#E21840"/>
<path fill-rule="evenodd" clip-rule="evenodd" d="M3771.74 2570.64L3689.46 2551.89V2601.88L3747.78 2736.27L3815.49 2756.07L3891.54 2688.34L3915.48 2574.82L3771.74 2570.64Z" fill="#EF204D"/>
<path fill-rule="evenodd" clip-rule="evenodd" d="M3903.25 2545.63L3845.44 2526.09H3725.14L3710.28 2551.87L3763.41 2576.09L3907.16 2565.96L3903.25 2545.65" fill="#E21840"/>
<path fill-rule="evenodd" clip-rule="evenodd" d="M3619.66 2794.58L3804.04 3286.25L3830.07 3250.84L3906.07 3038.4L3995.66 2788.41L3619.64 2794.58" fill="#D858A3"/>
<path fill-rule="evenodd" clip-rule="evenodd" d="M3821 2788.35V2769.11C3832.54 2765.88 3843.39 2760.59 3853.04 2753.49C3859.8 2765.72 3868.55 2776.73 3878.94 2786.07C3860.28 2787.16 3840.75 2787.99 3821 2788.35ZM3939.55 2912.86L3939.14 2912.67C3938.45 2914.03 3872.15 3044.57 3738.56 3108.7C3726.84 3078.23 3714.31 3044.19 3700.96 3006.56C3698.1 2998.5 3695.27 2990.48 3692.49 2982.51C3754.56 2958.85 3811.94 2924.36 3861.95 2880.63C3884.77 2861.06 3905.82 2839.5 3924.84 2816.2C3942.68 2814.72 3959.01 2813.08 3973.08 2811.52C3964.48 2838.08 3952.89 2873.45 3939.55 2912.86ZM3804.04 3256.9C3790.91 3233.29 3779.17 3208.93 3768.9 3183.95C3763.15 3170.52 3757.08 3155.8 3750.71 3139.79C3807.9 3111.82 3858.89 3072.65 3900.66 3024.61C3877.59 3088.91 3856.95 3142.42 3839.22 3183.86C3828.92 3208.87 3817.17 3233.26 3804.04 3256.91V3256.9ZM3800.19 2821.85C3826.54 2821.85 3852.79 2820.97 3877.57 2819.55C3867.77 2829.9 3854.95 2842.55 3839.31 2856.12C3792.7 2896.77 3739.3 2928.88 3681.55 2951C3662.85 2896.65 3646.42 2846.76 3635.11 2811.87C3689.91 2818.25 3745.02 2821.57 3800.19 2821.85ZM3752.47 2754.67C3762.96 2762.34 3774.96 2767.7 3787.68 2770.38V2788.48C3766.45 2788.23 3745.69 2787.45 3726.03 2786.31C3736.54 2777.31 3745.48 2766.61 3752.47 2754.67ZM3588.42 2658.88C3587.9 2656.01 3587.56 2653.11 3587.4 2650.2C3603.41 2653.24 3619.67 2654.69 3635.97 2654.54C3639.67 2654.54 3643.53 2654.44 3647.59 2654.29C3669.96 2666.73 3686.53 2687.49 3693.71 2712.06C3698.07 2730.42 3697.8 2749.57 3692.92 2767.8C3691.14 2768.51 3689.28 2769.03 3687.38 2769.35C3685.73 2769.65 3684.06 2769.8 3682.38 2769.79C3666.14 2769.79 3645.19 2756.5 3626.38 2734.24C3607.79 2712.58 3594.76 2686.72 3588.43 2658.89L3588.42 2658.88ZM3659.48 2610.9C3663.68 2610.18 3668.05 2609.46 3672.45 2608.73C3672.93 2612.03 3673.46 2615.35 3674.12 2618.71C3655.22 2621.07 3636.13 2621.63 3617.12 2620.39C3631.04 2616.38 3645.18 2613.21 3659.48 2610.93V2610.9ZM3883.77 2547.97C3888.58 2549.84 3892.89 2552.8 3896.37 2556.61C3853.42 2561.8 3809.95 2560.63 3767.34 2553.15C3755.49 2550.93 3743.79 2547.93 3732.33 2544.16C3755.09 2539.43 3778.33 2537.48 3801.56 2538.37C3832.85 2538.36 3864.44 2539.53 3883.77 2547.95V2547.97ZM3923.24 2654.49C3937.49 2672.48 3944.7 2695.04 3943.51 2717.96C3941.7 2736.75 3935.25 2754.8 3924.76 2770.48H3923.55C3922.03 2770.49 3920.52 2770.38 3919.02 2770.13C3904.7 2767.92 3889.87 2753.24 3878.44 2730.32C3897.8 2707.94 3912.98 2682.25 3923.24 2654.49ZM3857.26 2666.79C3856.02 2639.87 3846.33 2614.02 3829.57 2592.92C3833.33 2592.99 3837.19 2593.04 3841.15 2593.04C3862.15 2593.01 3883.14 2591.77 3904 2589.32C3900.95 2624.5 3889.02 2658.32 3869.32 2687.62C3863.84 2695.97 3857.67 2703.84 3850.86 2711.15C3855.55 2696.85 3857.72 2681.84 3857.26 2666.79ZM3736.75 2688.25C3716.87 2656.59 3704.03 2616.06 3704.03 2585.03C3703.98 2579.86 3704.43 2574.68 3705.4 2569.6C3729.39 2579.43 3754.59 2585.97 3780.33 2589.04C3808.19 2613.49 3822.86 2639.94 3823.94 2667.74C3823.76 2693.28 3815.26 2718.07 3799.74 2738.35C3788.84 2737.36 3778.49 2733.13 3770.02 2726.2C3756.74 2715.66 3745.47 2702.8 3736.75 2688.25ZM4009.97 2629.41C4010.88 2630 4011.77 2630.59 4012.62 2631.22C3985.97 2629.57 3959.57 2625.16 3933.84 2618.04C3934.38 2615.33 3934.86 2612.62 3935.29 2609.93C3938.19 2610.38 3941.04 2610.79 3943.8 2611.21C3969.61 2615.27 3995.51 2620.24 4009.97 2629.41ZM3981.74 2734.06C3978.85 2737.42 3975.95 2740.57 3972.98 2743.47C3974.95 2735.96 3976.23 2728.28 3976.81 2720.54C3978.34 2699.4 3974.25 2678.22 3964.95 2659.16C3982.74 2662.16 4000.69 2664.09 4018.7 2664.95C4011.73 2690.48 3999.09 2714.1 3981.72 2734.06L3981.74 2734.06ZM4052.93 2663.55C4062.6 2601.49 4011.04 2587.96 3948.96 2578.29C3944.95 2577.66 3940.99 2577.07 3937.11 2576.53C3932.43 2510.88 3872.31 2505 3801.58 2505C3731.37 2505 3676.06 2510.79 3671.08 2575.22C3665.39 2576.1 3659.61 2577.05 3653.7 2578.11C3591.83 2588.97 3544.67 2602.82 3555.57 2664.69C3565.17 2708.05 3588.28 2747.25 3621.57 2776.64C3600.16 2773.96 3587.34 2771.86 3587.34 2771.86C3587.34 2771.86 3754.04 3305.01 3804.05 3305.01C3854.06 3305.01 4020.76 2771.86 4020.76 2771.86C4020.76 2771.86 4007.84 2773.82 3986.44 2776.4C4020.35 2747.45 4047.1 2700.97 4052.92 2663.57" fill="#070505"/>
<path fill-rule="evenodd" clip-rule="evenodd" d="M4068.34 3744.32L3948.03 3858.37L4323.8 4006.04L4068.34 3744.32Z" fill="#812839"/>
<path fill-rule="evenodd" clip-rule="evenodd" d="M3939.69 3870.9L3601.15 4213.6L3878.24 4504.23L4351.14 4036.52L3939.69 3870.9Z" fill="#F63832"/>
<path fill-rule="evenodd" clip-rule="evenodd" d="M4062.48 4174.97L4058.14 4136.54L4039 4114.2L4000.43 4100.54L3998.86 4091.85L3988.73 4063.94L3969.91 4047.15L3932.93 4037.48L3904.24 4052.3L3885.25 4075.25L3874.78 4130.04L3872.79 4173.93L3882.52 4222.02L3910.59 4224.79L3981.03 4229.13L4042.14 4204.79L4062.45 4174.98" fill="#F1CA25"/>
<path fill-rule="evenodd" clip-rule="evenodd" d="M3620.15 4217.6L3956.13 3881.62L4315.1 4041.17L3879.42 4476.85L3620.15 4217.6ZM3995.87 3841.85L4033.57 3879.57L3981.38 3856.4L3995.87 3841.85ZM4066.58 3771.15L4113.71 3818.29L4066.58 3865.41L4019.45 3818.29L4066.58 3771.15ZM4137.28 3841.85L4184.45 3888.99L4144.56 3928.89L4118.43 3917.26L4090.2 3888.99L4137.28 3841.85ZM4255.15 3959.69L4242.45 3972.39L4177.16 3943.38L4208 3912.58L4255.15 3959.69ZM4278.71 3983.28L4288.12 3992.69L4275.09 3986.9L4278.71 3983.28ZM4372.99 4030.4L4278.71 3936.14L4231.56 3888.99L4137.28 3794.71L4066.58 3724L3972.29 3818.29L3948.73 3841.85L3573 4217.6L3879.42 4524L4278.71 4124.69L4372.99 4030.4Z" fill="#070505"/>
<path fill-rule="evenodd" clip-rule="evenodd" d="M4028.3 4186.55C4014.23 4200.61 3987.79 4208.03 3951.83 4208.03C3932.55 4207.88 3913.32 4206.07 3894.35 4202.62C3891.59 4187.21 3889.87 4171.64 3889.18 4156C3887.54 4115.04 3895.1 4084.06 3910.42 4068.73C3913.64 4065.49 3917.47 4062.93 3921.68 4061.18C3925.9 4059.43 3930.42 4058.54 3934.98 4058.55C3939.55 4058.54 3944.07 4059.43 3948.28 4061.18C3952.5 4062.93 3956.32 4065.49 3959.54 4068.73C3962.82 4071.99 3965.4 4075.87 3967.14 4080.15C3968.88 4084.43 3969.75 4089.01 3969.68 4093.63L3969.34 4127.65L4003.36 4127.28H4003.73C4008.29 4127.27 4012.81 4128.17 4017.03 4129.92C4021.25 4131.66 4025.07 4134.23 4028.29 4137.47C4031.51 4140.69 4034.07 4144.51 4035.81 4148.72C4037.55 4152.93 4038.44 4157.45 4038.42 4162C4038.44 4166.56 4037.55 4171.08 4035.82 4175.29C4034.08 4179.5 4031.52 4183.33 4028.3 4186.55ZM4051.85 4113.89C4045.54 4107.57 4038.03 4102.55 4029.78 4099.13C4021.52 4095.72 4012.67 4093.96 4003.73 4093.96H4003.01C4003.11 4084.91 4001.39 4075.93 3997.97 4067.55C3994.55 4059.16 3989.49 4051.55 3983.08 4045.15C3976.77 4038.82 3969.27 4033.8 3961.01 4030.38C3952.75 4026.96 3943.9 4025.21 3934.96 4025.22C3926.02 4025.21 3917.16 4026.96 3908.9 4030.38C3900.64 4033.8 3893.13 4038.82 3886.81 4045.15C3831.84 4100.16 3866.21 4230.77 3866.21 4230.77C3894.25 4237.56 3922.97 4241.12 3951.81 4241.38C3988.01 4241.38 4027.39 4234.6 4051.81 4210.13C4058.13 4203.81 4063.15 4196.31 4066.57 4188.05C4070 4179.79 4071.76 4170.94 4071.76 4162C4071.76 4153.05 4070 4144.2 4066.57 4135.94C4063.15 4127.68 4058.13 4120.18 4051.81 4113.86" fill="#070505"/>
<path fill-rule="evenodd" clip-rule="evenodd" d="M7522.08 2097.4L7456.79 2062.77L7445.37 2105.03L7463.97 2231.94L7516.68 2264.17L7596.47 2224.3L7642.64 2133.81L7522.08 2097.42" fill="#EF204D"/>
<path fill-rule="evenodd" clip-rule="evenodd" d="M7638.95 2106.31L7594.57 2076.63L7492.85 2049.12L7474.4 2067.53L7513.77 2100.14L7637.6 2124.39L7638.95 2106.3" fill="#E21840"/>
<path fill-rule="evenodd" clip-rule="evenodd" d="M7231.94 2115.99L7158.07 2114.84L7167.09 2157.69L7241.39 2262.26L7302.98 2266.97L7355.92 2195.19L7355.87 2093.58L7231.94 2116.02" fill="#EF204D"/>
<path fill-rule="evenodd" clip-rule="evenodd" d="M7340.07 2070.79L7287.05 2064.52L7183.95 2086.29L7175.88 2111.08L7225.79 2122.21L7347.1 2087.46L7340.07 2070.77" fill="#E21840"/>
<path fill-rule="evenodd" clip-rule="evenodd" d="M7368.74 2043.64L7286.46 2024.89V2074.88L7344.78 2209.27L7412.49 2229.07L7488.54 2161.34L7512.48 2047.82L7368.74 2043.64Z" fill="#EF204D"/>
<path fill-rule="evenodd" clip-rule="evenodd" d="M7500.25 2018.63L7442.44 1999.09H7322.14L7307.28 2024.87L7360.41 2049.09L7504.16 2038.96L7500.25 2018.65" fill="#E21840"/>
<path fill-rule="evenodd" clip-rule="evenodd" d="M7216.66 2267.58L7401.04 2759.25L7427.07 2723.84L7503.07 2511.4L7592.66 2261.41L7216.64 2267.58" fill="#D858A3"/>
<path fill-rule="evenodd" clip-rule="evenodd" d="M7418 2261.35V2242.11C7429.54 2238.88 7440.39 2233.59 7450.04 2226.49C7456.8 2238.72 7465.55 2249.73 7475.94 2259.07C7457.28 2260.16 7437.75 2260.99 7418 2261.35ZM7536.55 2385.86L7536.14 2385.67C7535.45 2387.03 7469.15 2517.57 7335.56 2581.7C7323.84 2551.23 7311.31 2517.19 7297.96 2479.56C7295.1 2471.5 7292.27 2463.48 7289.49 2455.51C7351.56 2431.85 7408.94 2397.36 7458.95 2353.63C7481.77 2334.06 7502.82 2312.5 7521.84 2289.2C7539.68 2287.72 7556.01 2286.08 7570.08 2284.52C7561.48 2311.08 7549.89 2346.45 7536.55 2385.86ZM7401.04 2729.9C7387.91 2706.29 7376.17 2681.93 7365.9 2656.95C7360.15 2643.52 7354.08 2628.8 7347.71 2612.79C7404.9 2584.82 7455.89 2545.65 7497.66 2497.61C7474.59 2561.91 7453.95 2615.42 7436.22 2656.86C7425.92 2681.87 7414.17 2706.26 7401.04 2729.91V2729.9ZM7397.19 2294.85C7423.54 2294.85 7449.79 2293.97 7474.57 2292.55C7464.77 2302.9 7451.95 2315.55 7436.31 2329.12C7389.7 2369.77 7336.3 2401.88 7278.55 2424C7259.85 2369.65 7243.42 2319.76 7232.11 2284.87C7286.91 2291.25 7342.02 2294.57 7397.19 2294.85ZM7349.47 2227.67C7359.96 2235.34 7371.96 2240.7 7384.68 2243.38V2261.48C7363.45 2261.23 7342.69 2260.45 7323.03 2259.31C7333.54 2250.31 7342.48 2239.61 7349.47 2227.67ZM7185.42 2131.88C7184.9 2129.01 7184.56 2126.11 7184.4 2123.2C7200.41 2126.24 7216.67 2127.69 7232.97 2127.54C7236.67 2127.54 7240.53 2127.44 7244.59 2127.29C7266.96 2139.73 7283.53 2160.49 7290.71 2185.06C7295.07 2203.42 7294.8 2222.57 7289.92 2240.8C7288.14 2241.51 7286.28 2242.03 7284.38 2242.35C7282.73 2242.65 7281.06 2242.8 7279.38 2242.79C7263.14 2242.79 7242.19 2229.5 7223.38 2207.24C7204.79 2185.58 7191.76 2159.72 7185.43 2131.89L7185.42 2131.88ZM7256.48 2083.9C7260.68 2083.18 7265.05 2082.46 7269.45 2081.73C7269.93 2085.03 7270.46 2088.35 7271.12 2091.71C7252.22 2094.07 7233.13 2094.63 7214.12 2093.39C7228.04 2089.38 7242.18 2086.21 7256.48 2083.93V2083.9ZM7480.77 2020.97C7485.58 2022.84 7489.89 2025.8 7493.37 2029.61C7450.42 2034.8 7406.95 2033.63 7364.34 2026.15C7352.49 2023.93 7340.79 2020.93 7329.33 2017.16C7352.09 2012.43 7375.33 2010.48 7398.56 2011.37C7429.85 2011.36 7461.44 2012.53 7480.77 2020.95V2020.97ZM7520.24 2127.49C7534.49 2145.48 7541.7 2168.04 7540.51 2190.96C7538.7 2209.75 7532.25 2227.8 7521.76 2243.48H7520.55C7519.03 2243.49 7517.52 2243.38 7516.02 2243.13C7501.7 2240.92 7486.87 2226.24 7475.44 2203.32C7494.8 2180.94 7509.98 2155.25 7520.24 2127.49ZM7454.26 2139.79C7453.02 2112.87 7443.33 2087.02 7426.57 2065.92C7430.33 2065.99 7434.19 2066.04 7438.15 2066.04C7459.15 2066.01 7480.14 2064.77 7501 2062.32C7497.95 2097.5 7486.02 2131.32 7466.32 2160.62C7460.84 2168.97 7454.67 2176.84 7447.86 2184.15C7452.55 2169.85 7454.72 2154.84 7454.26 2139.79ZM7333.75 2161.25C7313.87 2129.59 7301.03 2089.06 7301.03 2058.03C7300.98 2052.86 7301.43 2047.68 7302.4 2042.6C7326.39 2052.43 7351.59 2058.97 7377.33 2062.04C7405.19 2086.49 7419.86 2112.94 7420.94 2140.74C7420.76 2166.28 7412.26 2191.07 7396.74 2211.35C7385.84 2210.36 7375.49 2206.13 7367.02 2199.2C7353.74 2188.66 7342.47 2175.8 7333.75 2161.25ZM7606.97 2102.41C7607.88 2103 7608.77 2103.59 7609.62 2104.22C7582.97 2102.57 7556.57 2098.16 7530.84 2091.04C7531.38 2088.33 7531.86 2085.62 7532.29 2082.93C7535.19 2083.38 7538.04 2083.79 7540.8 2084.21C7566.61 2088.27 7592.51 2093.24 7606.97 2102.41ZM7578.74 2207.06C7575.85 2210.42 7572.95 2213.57 7569.98 2216.47C7571.95 2208.96 7573.23 2201.28 7573.81 2193.54C7575.34 2172.4 7571.25 2151.22 7561.95 2132.16C7579.74 2135.16 7597.69 2137.09 7615.7 2137.95C7608.73 2163.48 7596.09 2187.1 7578.72 2207.06L7578.74 2207.06ZM7649.93 2136.55C7659.6 2074.49 7608.04 2060.96 7545.96 2051.29C7541.95 2050.66 7537.99 2050.07 7534.11 2049.53C7529.43 1983.88 7469.31 1978 7398.58 1978C7328.37 1978 7273.06 1983.79 7268.08 2048.22C7262.39 2049.1 7256.61 2050.05 7250.7 2051.11C7188.83 2061.97 7141.67 2075.82 7152.57 2137.69C7162.17 2181.05 7185.28 2220.25 7218.57 2249.64C7197.16 2246.96 7184.34 2244.86 7184.34 2244.86C7184.34 2244.86 7351.04 2778.01 7401.05 2778.01C7451.06 2778.01 7617.76 2244.86 7617.76 2244.86C7617.76 2244.86 7604.84 2246.82 7583.44 2249.4C7617.35 2220.45 7644.1 2173.97 7649.92 2136.57" fill="#070505"/>
<path fill-rule="evenodd" clip-rule="evenodd" d="M2844.34 2179.33L2724.03 2293.38L3099.8 2441.05L2844.34 2179.33Z" fill="#812839"/>
<path fill-rule="evenodd" clip-rule="evenodd" d="M2715.69 2305.91L2377.15 2648.6L2654.24 2939.24L3127.14 2471.53L2715.69 2305.91Z" fill="#F63832"/>
<path fill-rule="evenodd" clip-rule="evenodd" d="M2838.48 2609.98L2834.14 2571.55L2815 2549.21L2776.43 2535.54L2774.86 2526.86L2764.73 2498.95L2745.91 2482.16L2708.93 2472.49L2680.24 2487.31L2661.25 2510.26L2650.78 2565.05L2648.79 2608.94L2658.52 2657.03L2686.59 2659.8L2757.03 2664.14L2818.14 2639.8L2838.45 2609.99" fill="#F1CA25"/>
<path fill-rule="evenodd" clip-rule="evenodd" d="M2396.15 2652.61L2732.13 2316.62L3091.1 2476.17L2655.42 2911.86L2396.15 2652.61ZM2771.87 2276.86L2809.57 2314.58L2757.38 2291.41L2771.87 2276.86ZM2842.58 2206.15L2889.71 2253.29L2842.58 2300.42L2795.45 2253.29L2842.58 2206.15ZM2913.28 2276.86L2960.45 2324L2920.56 2363.89L2894.43 2352.27L2866.2 2324L2913.28 2276.86ZM3031.15 2394.7L3018.45 2407.4L2953.16 2378.39L2984 2347.59L3031.15 2394.7ZM3054.71 2418.29L3064.12 2427.7L3051.09 2421.91L3054.71 2418.29ZM3148.99 2465.41L3054.71 2371.15L3007.56 2324L2913.28 2229.72L2842.58 2159.01L2748.29 2253.29L2724.73 2276.86L2349 2652.61L2655.42 2959.01L3054.71 2559.7L3148.99 2465.41Z" fill="#070505"/>
<path fill-rule="evenodd" clip-rule="evenodd" d="M2804.3 2621.56C2790.23 2635.61 2763.79 2643.04 2727.83 2643.04C2708.55 2642.89 2689.32 2641.07 2670.35 2637.63C2667.59 2622.22 2665.87 2606.65 2665.18 2591.01C2663.54 2550.04 2671.1 2519.07 2686.42 2503.74C2689.64 2500.5 2693.47 2497.94 2697.68 2496.19C2701.9 2494.44 2706.42 2493.54 2710.98 2493.55C2715.55 2493.54 2720.07 2494.44 2724.28 2496.19C2728.5 2497.93 2732.32 2500.5 2735.54 2503.74C2738.82 2507 2741.4 2510.88 2743.14 2515.16C2744.88 2519.44 2745.75 2524.02 2745.68 2528.64L2745.34 2562.66L2779.36 2562.29H2779.73C2784.29 2562.28 2788.81 2563.18 2793.03 2564.92C2797.25 2566.67 2801.07 2569.24 2804.29 2572.48C2807.51 2575.69 2810.07 2579.52 2811.81 2583.73C2813.55 2587.94 2814.44 2592.45 2814.42 2597.01C2814.44 2601.57 2813.55 2606.08 2811.82 2610.3C2810.08 2614.51 2807.52 2618.34 2804.3 2621.56ZM2827.85 2548.89C2821.54 2542.57 2814.03 2537.56 2805.78 2534.14C2797.52 2530.72 2788.67 2528.97 2779.73 2528.97H2779.01C2779.11 2519.92 2777.39 2510.94 2773.97 2502.55C2770.55 2494.17 2765.49 2486.55 2759.08 2480.15C2752.77 2473.83 2745.27 2468.81 2737.01 2465.39C2728.75 2461.97 2719.9 2460.22 2710.96 2460.23C2702.02 2460.21 2693.16 2461.97 2684.9 2465.39C2676.64 2468.81 2669.13 2473.83 2662.81 2480.15C2607.84 2535.17 2642.21 2665.78 2642.21 2665.78C2670.25 2672.56 2698.97 2676.12 2727.81 2676.39C2764.01 2676.39 2803.39 2669.61 2827.81 2645.14C2834.13 2638.82 2839.15 2631.32 2842.57 2623.06C2846 2614.8 2847.76 2605.94 2847.76 2597C2847.76 2588.06 2846 2579.21 2842.57 2570.95C2839.15 2562.69 2834.13 2555.18 2827.81 2548.86" fill="#070505"/>
<path fill-rule="evenodd" clip-rule="evenodd" d="M5804.08 478.395L5738.79 443.773L5727.37 486.033L5745.97 612.936L5798.68 645.17L5878.47 605.298L5924.64 514.814L5804.08 478.418" fill="#EF204D"/>
<path fill-rule="evenodd" clip-rule="evenodd" d="M5920.95 487.312L5876.57 457.633L5774.85 430.125L5756.4 448.527L5795.77 481.145L5919.6 505.393L5920.95 487.296" fill="#E21840"/>
<path fill-rule="evenodd" clip-rule="evenodd" d="M5513.94 496.989L5440.07 495.838L5449.09 538.691L5523.39 643.256L5584.98 647.968L5637.92 576.188L5637.87 474.578L5513.94 497.017" fill="#EF204D"/>
<path fill-rule="evenodd" clip-rule="evenodd" d="M5622.07 451.791L5569.05 445.516L5465.95 467.289L5457.88 492.075L5507.79 503.208L5629.1 468.463L5622.07 451.77" fill="#E21840"/>
<path fill-rule="evenodd" clip-rule="evenodd" d="M5650.74 424.639L5568.46 405.891V455.882L5626.78 590.269L5694.49 610.068L5770.54 542.34L5794.48 428.816L5650.74 424.639Z" fill="#EF204D"/>
<path fill-rule="evenodd" clip-rule="evenodd" d="M5782.25 399.631L5724.44 380.086H5604.14L5589.28 405.871L5642.41 430.092L5786.16 419.957L5782.25 399.645" fill="#E21840"/>
<path fill-rule="evenodd" clip-rule="evenodd" d="M5498.66 648.579L5683.04 1140.25L5709.07 1104.84L5785.07 892.404L5874.66 642.406L5498.64 648.579" fill="#D858A3"/>
<path fill-rule="evenodd" clip-rule="evenodd" d="M5700 642.355V623.114C5711.54 619.882 5722.39 614.59 5732.04 607.493C5738.8 619.72 5747.55 630.73 5757.94 640.068C5739.28 641.161 5719.75 641.993 5700 642.355ZM5818.55 766.861L5818.14 766.665C5817.45 768.026 5751.15 898.57 5617.56 962.699C5605.84 932.233 5593.31 898.188 5579.96 860.561C5577.1 852.501 5574.27 844.483 5571.49 836.506C5633.56 812.852 5690.94 778.357 5740.95 734.628C5763.77 715.056 5784.82 693.495 5803.84 670.202C5821.68 668.718 5838.01 667.082 5852.08 665.518C5843.48 692.078 5831.89 727.453 5818.55 766.861ZM5683.04 1110.9C5669.91 1087.29 5658.17 1062.93 5647.9 1037.95C5642.15 1024.52 5636.08 1009.8 5629.71 993.79C5686.9 965.816 5737.89 926.647 5779.66 878.606C5756.59 942.908 5735.95 996.424 5718.22 1037.86C5707.92 1062.87 5696.17 1087.26 5683.04 1110.91V1110.9ZM5679.19 675.848C5705.54 675.848 5731.79 674.966 5756.57 673.554C5746.77 683.898 5733.95 696.552 5718.31 710.125C5671.7 750.769 5618.3 782.883 5560.55 804.996C5541.85 750.654 5525.42 700.757 5514.11 665.867C5568.91 672.245 5624.02 675.572 5679.19 675.848ZM5631.47 608.665C5641.96 616.344 5653.96 621.701 5666.68 624.38V642.477C5645.45 642.231 5624.69 641.45 5605.03 640.306C5615.54 631.311 5624.48 620.611 5631.47 608.665ZM5467.42 512.882C5466.9 510.01 5466.56 507.11 5466.4 504.196C5482.41 507.24 5498.67 508.693 5514.97 508.538C5518.67 508.538 5522.53 508.437 5526.59 508.293C5548.96 520.735 5565.53 541.488 5572.71 566.058C5577.07 584.415 5576.8 603.569 5571.92 621.796C5570.14 622.511 5568.28 623.033 5566.38 623.353C5564.73 623.65 5563.06 623.798 5561.38 623.795C5545.14 623.795 5524.19 610.503 5505.38 588.244C5486.79 566.585 5473.76 540.72 5467.43 512.889L5467.42 512.882ZM5538.48 464.904C5542.68 464.18 5547.05 463.456 5551.45 462.732C5551.93 466.026 5552.46 469.348 5553.12 472.714C5534.22 475.068 5515.13 475.63 5496.12 474.393C5510.04 470.375 5524.18 467.214 5538.48 464.925V464.904ZM5762.77 401.97C5767.58 403.844 5771.89 406.801 5775.37 410.612C5732.42 415.802 5688.95 414.633 5646.34 407.145C5634.49 404.933 5622.79 401.932 5611.33 398.162C5634.09 393.427 5657.33 391.482 5680.56 392.371C5711.85 392.356 5743.44 393.529 5762.77 401.948V401.97ZM5802.24 508.489C5816.49 526.48 5823.7 549.045 5822.51 571.964C5820.7 590.751 5814.25 608.796 5803.76 624.482H5802.55C5801.03 624.493 5799.52 624.376 5798.02 624.134C5783.7 621.919 5768.87 607.239 5757.44 584.321C5776.8 561.936 5791.98 536.245 5802.24 508.489ZM5736.26 520.794C5735.02 493.87 5725.33 468.019 5708.57 446.915C5712.33 446.995 5716.19 447.038 5720.15 447.038C5741.15 447.01 5762.14 445.771 5783 443.325C5779.95 478.497 5768.02 512.319 5748.32 541.62C5742.84 549.971 5736.67 557.843 5729.86 565.153C5734.55 550.852 5736.72 535.837 5736.26 520.794ZM5615.75 542.249C5595.87 510.587 5583.03 470.065 5583.03 439.032C5582.98 433.855 5583.43 428.685 5584.4 423.598C5608.39 433.43 5633.59 439.971 5659.33 443.042C5687.19 467.495 5701.86 493.937 5702.94 521.742C5702.76 547.28 5694.26 572.067 5678.74 592.35C5667.84 591.364 5657.49 587.13 5649.02 580.196C5635.74 569.656 5624.47 556.795 5615.75 542.249ZM5888.97 483.413C5889.88 483.999 5890.77 484.586 5891.62 485.223C5864.97 483.575 5838.57 479.157 5812.84 472.04C5813.38 469.333 5813.86 466.619 5814.29 463.934C5817.19 464.375 5820.04 464.788 5822.8 465.208C5848.61 469.269 5874.51 474.241 5888.97 483.413ZM5860.74 588.057C5857.85 591.423 5854.95 594.572 5851.98 597.468C5853.95 589.957 5855.23 582.284 5855.81 574.543C5857.34 553.395 5853.25 532.22 5843.95 513.165C5861.74 516.156 5879.69 518.088 5897.7 518.955C5890.73 544.478 5878.09 568.101 5860.72 588.064L5860.74 588.057ZM5931.93 517.551C5941.6 455.486 5890.04 441.956 5827.96 432.293C5823.95 431.656 5819.99 431.069 5816.11 430.533C5811.43 364.885 5751.31 359 5680.58 359C5610.37 359 5555.06 364.791 5550.08 429.216C5544.39 430.099 5538.61 431.047 5532.7 432.111C5470.83 442.97 5423.67 456.818 5434.57 518.688C5444.17 562.049 5467.28 601.247 5500.57 630.643C5479.16 627.965 5466.34 625.857 5466.34 625.857C5466.34 625.857 5633.04 1159.01 5683.05 1159.01C5733.06 1159.01 5899.76 625.857 5899.76 625.857C5899.76 625.857 5886.84 627.818 5865.44 630.403C5899.35 601.448 5926.1 554.968 5931.92 517.565" fill="#070505"/>
<path fill-rule="evenodd" clip-rule="evenodd" d="M931.342 2408.32L811.027 2522.37L1186.8 2670.04L931.342 2408.32Z" fill="#812839"/>
<path fill-rule="evenodd" clip-rule="evenodd" d="M802.695 2534.9L464.151 2877.6L741.245 3168.23L1214.14 2700.52L802.695 2534.9Z" fill="#F63832"/>
<path fill-rule="evenodd" clip-rule="evenodd" d="M925.478 2838.97L921.135 2800.54L901.996 2778.2L863.429 2764.54L861.864 2755.85L851.729 2727.94L832.909 2711.15L795.933 2701.48L767.239 2716.3L748.251 2739.25L737.777 2794.04L735.794 2837.93L745.516 2886.02L773.594 2888.79L844.027 2893.13L905.138 2868.79L925.449 2838.98" fill="#F1CA25"/>
<path fill-rule="evenodd" clip-rule="evenodd" d="M483.146 2881.6L819.126 2545.62L1178.1 2705.17L742.418 3140.85L483.146 2881.6ZM858.874 2505.85L896.567 2543.57L844.376 2520.4L858.874 2505.85ZM929.576 2435.15L976.715 2482.29L929.576 2529.41L882.452 2482.29L929.576 2435.15ZM1000.28 2505.85L1047.45 2552.99L1007.56 2592.89L981.426 2581.26L953.196 2552.99L1000.28 2505.85ZM1118.15 2623.69L1105.45 2636.39L1040.16 2607.38L1071 2576.58L1118.15 2623.69ZM1141.71 2647.28L1151.12 2656.69L1138.09 2650.9L1141.71 2647.28ZM1235.99 2694.4L1141.71 2600.14L1094.56 2552.99L1000.28 2458.71L929.576 2388L835.29 2482.29L811.729 2505.85L436 2881.6L742.418 3188L1141.71 2788.69L1235.99 2694.4Z" fill="#070505"/>
<path fill-rule="evenodd" clip-rule="evenodd" d="M891.296 2850.55C877.231 2864.61 850.795 2872.03 814.833 2872.03C795.552 2871.88 776.321 2870.07 757.35 2866.62C754.595 2851.21 752.868 2835.64 752.181 2820C750.545 2779.04 758.095 2748.06 773.42 2732.73C776.638 2729.49 780.465 2726.93 784.681 2725.18C788.897 2723.43 793.418 2722.54 797.982 2722.55C802.546 2722.54 807.066 2723.43 811.282 2725.18C815.498 2726.93 819.324 2729.49 822.541 2732.73C825.816 2735.99 828.401 2739.87 830.142 2744.15C831.884 2748.43 832.746 2753.01 832.677 2757.63L832.336 2791.65L866.357 2791.28H866.727C871.291 2791.27 875.813 2792.17 880.029 2793.92C884.245 2795.66 888.072 2798.23 891.288 2801.47C894.514 2804.69 897.071 2808.51 898.81 2812.72C900.549 2816.93 901.437 2821.45 901.422 2826C901.44 2830.56 900.554 2835.08 898.815 2839.29C897.077 2843.5 894.522 2847.33 891.296 2850.55ZM914.852 2777.89C908.536 2771.57 901.033 2766.55 892.777 2763.13C884.52 2759.72 875.67 2757.96 866.734 2757.96H866.011C866.108 2748.91 864.395 2739.93 860.973 2731.55C857.55 2723.16 852.489 2715.55 846.083 2709.15C839.769 2702.82 832.266 2697.8 824.008 2694.38C815.75 2690.96 806.897 2689.21 797.959 2689.22C789.017 2689.21 780.16 2690.96 771.898 2694.38C763.636 2697.8 756.131 2702.82 749.814 2709.15C694.843 2764.16 729.213 2894.77 729.213 2894.77C757.249 2901.56 785.967 2905.12 814.811 2905.38C851.005 2905.38 890.391 2898.6 914.807 2874.13C921.133 2867.81 926.151 2860.31 929.575 2852.05C932.998 2843.79 934.76 2834.94 934.76 2826C934.76 2817.05 932.998 2808.2 929.575 2799.94C926.151 2791.68 921.133 2784.18 914.807 2777.86" fill="#070505"/>
<path fill-rule="evenodd" clip-rule="evenodd" d="M6365.08 2910.4L6299.79 2875.77L6288.37 2918.03L6306.97 3044.94L6359.68 3077.17L6439.47 3037.3L6485.64 2946.81L6365.08 2910.42" fill="#EF204D"/>
<path fill-rule="evenodd" clip-rule="evenodd" d="M6481.95 2919.31L6437.57 2889.63L6335.85 2862.12L6317.4 2880.53L6356.77 2913.14L6480.6 2937.39L6481.95 2919.3" fill="#E21840"/>
<path fill-rule="evenodd" clip-rule="evenodd" d="M6074.94 2928.99L6001.07 2927.84L6010.09 2970.69L6084.39 3075.26L6145.98 3079.97L6198.92 3008.19L6198.87 2906.58L6074.94 2929.02" fill="#EF204D"/>
<path fill-rule="evenodd" clip-rule="evenodd" d="M6183.07 2883.79L6130.05 2877.52L6026.95 2899.29L6018.88 2924.08L6068.79 2935.21L6190.1 2900.46L6183.07 2883.77" fill="#E21840"/>
<path fill-rule="evenodd" clip-rule="evenodd" d="M6211.74 2856.64L6129.46 2837.89V2887.88L6187.78 3022.27L6255.49 3042.07L6331.54 2974.34L6355.48 2860.82L6211.74 2856.64Z" fill="#EF204D"/>
<path fill-rule="evenodd" clip-rule="evenodd" d="M6343.25 2831.63L6285.44 2812.09H6165.14L6150.28 2837.87L6203.41 2862.09L6347.16 2851.96L6343.25 2831.65" fill="#E21840"/>
<path fill-rule="evenodd" clip-rule="evenodd" d="M6059.66 3080.58L6244.04 3572.25L6270.07 3536.84L6346.07 3324.4L6435.66 3074.41L6059.64 3080.58" fill="#D858A3"/>
<path fill-rule="evenodd" clip-rule="evenodd" d="M6261 3074.35V3055.11C6272.54 3051.88 6283.39 3046.59 6293.04 3039.49C6299.8 3051.72 6308.55 3062.73 6318.94 3072.07C6300.28 3073.16 6280.75 3073.99 6261 3074.35ZM6379.55 3198.86L6379.14 3198.67C6378.45 3200.03 6312.15 3330.57 6178.56 3394.7C6166.84 3364.23 6154.31 3330.19 6140.96 3292.56C6138.1 3284.5 6135.27 3276.48 6132.49 3268.51C6194.56 3244.85 6251.94 3210.36 6301.95 3166.63C6324.77 3147.06 6345.82 3125.5 6364.84 3102.2C6382.68 3100.72 6399.01 3099.08 6413.08 3097.52C6404.48 3124.08 6392.89 3159.45 6379.55 3198.86ZM6244.04 3542.9C6230.91 3519.29 6219.17 3494.93 6208.9 3469.95C6203.15 3456.52 6197.08 3441.8 6190.71 3425.79C6247.9 3397.82 6298.89 3358.65 6340.66 3310.61C6317.59 3374.91 6296.95 3428.42 6279.22 3469.86C6268.92 3494.87 6257.17 3519.26 6244.04 3542.91V3542.9ZM6240.19 3107.85C6266.54 3107.85 6292.79 3106.97 6317.57 3105.55C6307.77 3115.9 6294.95 3128.55 6279.31 3142.12C6232.7 3182.77 6179.3 3214.88 6121.55 3237C6102.85 3182.65 6086.42 3132.76 6075.11 3097.87C6129.91 3104.25 6185.02 3107.57 6240.19 3107.85ZM6192.47 3040.67C6202.96 3048.34 6214.96 3053.7 6227.68 3056.38V3074.48C6206.45 3074.23 6185.69 3073.45 6166.03 3072.31C6176.54 3063.31 6185.48 3052.61 6192.47 3040.67ZM6028.42 2944.88C6027.9 2942.01 6027.56 2939.11 6027.4 2936.2C6043.41 2939.24 6059.67 2940.69 6075.97 2940.54C6079.67 2940.54 6083.53 2940.44 6087.59 2940.29C6109.96 2952.73 6126.53 2973.49 6133.71 2998.06C6138.07 3016.42 6137.8 3035.57 6132.92 3053.8C6131.14 3054.51 6129.28 3055.03 6127.38 3055.35C6125.73 3055.65 6124.06 3055.8 6122.38 3055.79C6106.14 3055.79 6085.19 3042.5 6066.38 3020.24C6047.79 2998.58 6034.76 2972.72 6028.43 2944.89L6028.42 2944.88ZM6099.48 2896.9C6103.68 2896.18 6108.05 2895.46 6112.45 2894.73C6112.93 2898.03 6113.46 2901.35 6114.12 2904.71C6095.22 2907.07 6076.13 2907.63 6057.12 2906.39C6071.04 2902.38 6085.18 2899.21 6099.48 2896.93V2896.9ZM6323.77 2833.97C6328.58 2835.84 6332.89 2838.8 6336.37 2842.61C6293.42 2847.8 6249.95 2846.63 6207.34 2839.15C6195.49 2836.93 6183.79 2833.93 6172.33 2830.16C6195.09 2825.43 6218.33 2823.48 6241.56 2824.37C6272.85 2824.36 6304.44 2825.53 6323.77 2833.95V2833.97ZM6363.24 2940.49C6377.49 2958.48 6384.7 2981.04 6383.51 3003.96C6381.7 3022.75 6375.25 3040.8 6364.76 3056.48H6363.55C6362.03 3056.49 6360.52 3056.38 6359.02 3056.13C6344.7 3053.92 6329.87 3039.24 6318.44 3016.32C6337.8 2993.94 6352.98 2968.25 6363.24 2940.49ZM6297.26 2952.79C6296.02 2925.87 6286.33 2900.02 6269.57 2878.92C6273.33 2878.99 6277.19 2879.04 6281.15 2879.04C6302.15 2879.01 6323.14 2877.77 6344 2875.32C6340.95 2910.5 6329.02 2944.32 6309.32 2973.62C6303.84 2981.97 6297.67 2989.84 6290.86 2997.15C6295.55 2982.85 6297.72 2967.84 6297.26 2952.79ZM6176.75 2974.25C6156.87 2942.59 6144.03 2902.06 6144.03 2871.03C6143.98 2865.86 6144.43 2860.68 6145.4 2855.6C6169.39 2865.43 6194.59 2871.97 6220.33 2875.04C6248.19 2899.49 6262.86 2925.94 6263.94 2953.74C6263.76 2979.28 6255.26 3004.07 6239.74 3024.35C6228.84 3023.36 6218.49 3019.13 6210.02 3012.2C6196.74 3001.66 6185.47 2988.8 6176.75 2974.25ZM6449.97 2915.41C6450.88 2916 6451.77 2916.59 6452.62 2917.22C6425.97 2915.57 6399.57 2911.16 6373.84 2904.04C6374.38 2901.33 6374.86 2898.62 6375.29 2895.93C6378.19 2896.38 6381.04 2896.79 6383.8 2897.21C6409.61 2901.27 6435.51 2906.24 6449.97 2915.41ZM6421.74 3020.06C6418.85 3023.42 6415.95 3026.57 6412.98 3029.47C6414.95 3021.96 6416.23 3014.28 6416.81 3006.54C6418.34 2985.4 6414.25 2964.22 6404.95 2945.16C6422.74 2948.16 6440.69 2950.09 6458.7 2950.95C6451.73 2976.48 6439.09 3000.1 6421.72 3020.06L6421.74 3020.06ZM6492.93 2949.55C6502.6 2887.49 6451.04 2873.96 6388.96 2864.29C6384.95 2863.66 6380.99 2863.07 6377.11 2862.53C6372.43 2796.88 6312.31 2791 6241.58 2791C6171.37 2791 6116.06 2796.79 6111.08 2861.22C6105.39 2862.1 6099.61 2863.05 6093.7 2864.11C6031.83 2874.97 5984.67 2888.82 5995.57 2950.69C6005.17 2994.05 6028.28 3033.25 6061.57 3062.64C6040.16 3059.96 6027.34 3057.86 6027.34 3057.86C6027.34 3057.86 6194.04 3591.01 6244.05 3591.01C6294.06 3591.01 6460.76 3057.86 6460.76 3057.86C6460.76 3057.86 6447.84 3059.82 6426.44 3062.4C6460.35 3033.45 6487.1 2986.97 6492.92 2949.57" fill="#070505"/>
<path fill-rule="evenodd" clip-rule="evenodd" d="M5194.34 1526.32L5074.03 1640.37L5449.8 1788.04L5194.34 1526.32Z" fill="#812839"/>
<path fill-rule="evenodd" clip-rule="evenodd" d="M5065.69 1652.9L4727.15 1995.6L5004.24 2286.23L5477.14 1818.52L5065.69 1652.9Z" fill="#F63832"/>
<path fill-rule="evenodd" clip-rule="evenodd" d="M5188.48 1956.97L5184.14 1918.54L5165 1896.2L5126.43 1882.54L5124.86 1873.85L5114.73 1845.94L5095.91 1829.15L5058.93 1819.48L5030.24 1834.3L5011.25 1857.25L5000.78 1912.04L4998.79 1955.93L5008.52 2004.02L5036.59 2006.79L5107.03 2011.13L5168.14 1986.79L5188.45 1956.98" fill="#F1CA25"/>
<path fill-rule="evenodd" clip-rule="evenodd" d="M4746.15 1999.6L5082.13 1663.62L5441.1 1823.17L5005.42 2258.85L4746.15 1999.6ZM5121.87 1623.85L5159.57 1661.57L5107.38 1638.4L5121.87 1623.85ZM5192.58 1553.15L5239.71 1600.29L5192.58 1647.41L5145.45 1600.29L5192.58 1553.15ZM5263.28 1623.85L5310.45 1670.99L5270.56 1710.89L5244.43 1699.26L5216.2 1670.99L5263.28 1623.85ZM5381.15 1741.69L5368.45 1754.39L5303.16 1725.38L5334 1694.58L5381.15 1741.69ZM5404.71 1765.28L5414.12 1774.69L5401.09 1768.9L5404.71 1765.28ZM5498.99 1812.4L5404.71 1718.14L5357.56 1670.99L5263.28 1576.71L5192.58 1506L5098.29 1600.29L5074.73 1623.85L4699 1999.6L5005.42 2306L5404.71 1906.69L5498.99 1812.4Z" fill="#070505"/>
<path fill-rule="evenodd" clip-rule="evenodd" d="M5154.3 1968.55C5140.23 1982.61 5113.79 1990.03 5077.83 1990.03C5058.55 1989.88 5039.32 1988.07 5020.35 1984.62C5017.59 1969.21 5015.87 1953.64 5015.18 1938C5013.54 1897.04 5021.1 1866.06 5036.42 1850.73C5039.64 1847.49 5043.47 1844.93 5047.68 1843.18C5051.9 1841.43 5056.42 1840.54 5060.98 1840.55C5065.55 1840.54 5070.07 1841.43 5074.28 1843.18C5078.5 1844.93 5082.32 1847.49 5085.54 1850.73C5088.82 1853.99 5091.4 1857.87 5093.14 1862.15C5094.88 1866.43 5095.75 1871.01 5095.68 1875.63L5095.34 1909.65L5129.36 1909.28H5129.73C5134.29 1909.27 5138.81 1910.17 5143.03 1911.92C5147.25 1913.66 5151.07 1916.23 5154.29 1919.47C5157.51 1922.69 5160.07 1926.51 5161.81 1930.72C5163.55 1934.93 5164.44 1939.45 5164.42 1944C5164.44 1948.56 5163.55 1953.08 5161.82 1957.29C5160.08 1961.5 5157.52 1965.33 5154.3 1968.55ZM5177.85 1895.89C5171.54 1889.57 5164.03 1884.55 5155.78 1881.13C5147.52 1877.72 5138.67 1875.96 5129.73 1875.96H5129.01C5129.11 1866.91 5127.39 1857.93 5123.97 1849.55C5120.55 1841.16 5115.49 1833.55 5109.08 1827.15C5102.77 1820.82 5095.27 1815.8 5087.01 1812.38C5078.75 1808.96 5069.9 1807.21 5060.96 1807.22C5052.02 1807.21 5043.16 1808.96 5034.9 1812.38C5026.64 1815.8 5019.13 1820.82 5012.81 1827.15C4957.84 1882.16 4992.21 2012.77 4992.21 2012.77C5020.25 2019.56 5048.97 2023.12 5077.81 2023.38C5114.01 2023.38 5153.39 2016.6 5177.81 1992.13C5184.13 1985.81 5189.15 1978.31 5192.57 1970.05C5196 1961.79 5197.76 1952.94 5197.76 1944C5197.76 1935.05 5196 1926.2 5192.57 1917.94C5189.15 1909.68 5184.13 1902.18 5177.81 1895.86" fill="#070505"/>
<path fill-rule="evenodd" clip-rule="evenodd" d="M6764.07 1305.39L6698.78 1270.77L6687.37 1313.03L6705.96 1439.93L6758.67 1472.16L6838.46 1432.29L6884.63 1341.81L6764.07 1305.41" fill="#EF204D"/>
<path fill-rule="evenodd" clip-rule="evenodd" d="M6880.94 1314.3L6836.56 1284.62L6734.85 1257.12L6716.39 1275.52L6755.76 1308.14L6879.59 1332.39L6880.94 1314.29" fill="#E21840"/>
<path fill-rule="evenodd" clip-rule="evenodd" d="M6473.93 1323.98L6400.06 1322.83L6409.09 1365.68L6483.38 1470.25L6544.97 1474.96L6597.91 1403.18L6597.87 1301.57L6473.93 1324.01" fill="#EF204D"/>
<path fill-rule="evenodd" clip-rule="evenodd" d="M6582.06 1278.78L6529.04 1272.51L6425.94 1294.28L6417.87 1319.07L6467.78 1330.2L6589.09 1295.46L6582.06 1278.76" fill="#E21840"/>
<path fill-rule="evenodd" clip-rule="evenodd" d="M6610.73 1251.63L6528.45 1232.88V1282.87L6586.78 1417.26L6654.48 1437.06L6730.53 1369.33L6754.48 1255.81L6610.73 1251.63Z" fill="#EF204D"/>
<path fill-rule="evenodd" clip-rule="evenodd" d="M6742.24 1226.62L6684.43 1207.08H6564.13L6549.27 1232.86L6602.4 1257.08L6746.15 1246.95L6742.24 1226.64" fill="#E21840"/>
<path fill-rule="evenodd" clip-rule="evenodd" d="M6458.66 1475.57L6643.04 1967.24L6669.06 1931.83L6745.07 1719.4L6834.65 1469.4L6458.63 1475.57" fill="#D858A3"/>
<path fill-rule="evenodd" clip-rule="evenodd" d="M6660 1469.35V1450.11C6671.53 1446.87 6682.38 1441.58 6692.03 1434.49C6698.79 1446.71 6707.54 1457.72 6717.94 1467.06C6699.27 1468.15 6679.74 1468.98 6660 1469.35ZM6778.55 1593.85L6778.13 1593.66C6777.45 1595.02 6711.14 1725.56 6577.55 1789.69C6565.84 1759.23 6553.3 1725.18 6539.96 1687.55C6537.09 1679.49 6534.26 1671.48 6531.48 1663.5C6593.56 1639.84 6650.93 1605.35 6700.94 1561.62C6723.77 1542.05 6744.81 1520.49 6763.83 1497.19C6781.67 1495.71 6798 1494.07 6812.07 1492.51C6803.48 1519.07 6791.88 1554.45 6778.55 1593.85ZM6643.04 1937.89C6629.9 1914.29 6618.16 1889.92 6607.89 1864.94C6602.14 1851.51 6596.08 1836.79 6589.7 1820.78C6646.89 1792.81 6697.88 1753.64 6739.65 1705.6C6716.58 1769.9 6695.94 1823.42 6678.21 1864.85C6667.91 1889.86 6656.17 1914.26 6643.04 1937.91V1937.89ZM6639.18 1502.84C6665.53 1502.84 6691.78 1501.96 6716.57 1500.55C6706.77 1510.89 6693.95 1523.54 6678.3 1537.12C6631.7 1577.76 6578.29 1609.88 6520.54 1631.99C6501.84 1577.65 6485.41 1527.75 6474.11 1492.86C6528.9 1499.24 6584.01 1502.56 6639.18 1502.84ZM6591.47 1435.66C6601.95 1443.34 6613.95 1448.69 6626.67 1451.37V1469.47C6605.44 1469.22 6584.69 1468.44 6565.02 1467.3C6575.54 1458.3 6584.48 1447.6 6591.47 1435.66ZM6427.41 1339.87C6426.89 1337 6426.55 1334.1 6426.39 1331.19C6442.4 1334.23 6458.67 1335.69 6474.96 1335.53C6478.66 1335.53 6482.52 1335.43 6486.58 1335.28C6508.95 1347.73 6525.52 1368.48 6532.7 1393.05C6537.07 1411.41 6536.79 1430.56 6531.91 1448.79C6530.13 1449.5 6528.27 1450.03 6526.38 1450.35C6524.73 1450.64 6523.05 1450.79 6521.37 1450.79C6505.13 1450.79 6484.18 1437.5 6465.37 1415.24C6446.78 1393.58 6433.76 1367.71 6427.42 1339.88L6427.41 1339.87ZM6498.47 1291.9C6502.68 1291.17 6507.04 1290.45 6511.44 1289.72C6511.92 1293.02 6512.46 1296.34 6513.11 1299.71C6494.21 1302.06 6475.13 1302.62 6456.12 1301.38C6470.03 1297.37 6484.17 1294.21 6498.47 1291.92V1291.9ZM6722.76 1228.96C6727.57 1230.84 6731.88 1233.79 6735.36 1237.6C6692.42 1242.79 6648.94 1241.63 6606.34 1234.14C6594.48 1231.93 6582.78 1228.92 6571.32 1225.15C6594.08 1220.42 6617.33 1218.47 6640.55 1219.36C6671.84 1219.35 6703.43 1220.52 6722.76 1228.94V1228.96ZM6762.24 1335.48C6776.48 1353.47 6783.69 1376.04 6782.51 1398.96C6780.69 1417.74 6774.25 1435.79 6763.75 1451.47H6762.54C6761.03 1451.48 6759.51 1451.37 6758.02 1451.13C6743.69 1448.91 6728.87 1434.23 6717.44 1411.31C6736.79 1388.93 6751.97 1363.24 6762.24 1335.48ZM6696.25 1347.79C6695.01 1320.86 6685.33 1295.01 6668.56 1273.91C6672.32 1273.99 6676.18 1274.03 6680.14 1274.03C6701.14 1274 6722.13 1272.76 6742.99 1270.32C6739.94 1305.49 6728.01 1339.31 6708.32 1368.61C6702.84 1376.96 6696.66 1384.84 6689.86 1392.15C6694.55 1377.84 6696.71 1362.83 6696.25 1347.79ZM6575.74 1369.24C6555.87 1337.58 6543.03 1297.06 6543.03 1266.02C6542.97 1260.85 6543.43 1255.68 6544.39 1250.59C6568.38 1260.42 6593.58 1266.96 6619.32 1270.03C6647.18 1294.49 6661.85 1320.93 6662.93 1348.73C6662.75 1374.27 6654.26 1399.06 6638.74 1419.34C6627.84 1418.36 6617.48 1414.12 6609.01 1407.19C6595.73 1396.65 6584.46 1383.79 6575.74 1369.24ZM6848.96 1310.41C6849.87 1310.99 6850.77 1311.58 6851.61 1312.21C6824.97 1310.57 6798.57 1306.15 6772.84 1299.03C6773.37 1296.33 6773.86 1293.61 6774.28 1290.93C6777.18 1291.37 6780.03 1291.78 6782.79 1292.2C6808.6 1296.26 6834.5 1301.23 6848.96 1310.41ZM6820.73 1415.05C6817.84 1418.42 6814.94 1421.56 6811.98 1424.46C6813.94 1416.95 6815.22 1409.28 6815.8 1401.53C6817.33 1380.39 6813.24 1359.21 6803.94 1340.16C6821.73 1343.15 6839.68 1345.08 6857.69 1345.95C6850.72 1371.47 6838.08 1395.09 6820.71 1415.06L6820.73 1415.05ZM6891.93 1344.54C6901.59 1282.48 6850.03 1268.95 6787.95 1259.28C6783.94 1258.65 6779.99 1258.06 6776.11 1257.53C6771.42 1191.88 6711.31 1185.99 6640.58 1185.99C6570.36 1185.99 6515.05 1191.78 6510.07 1256.21C6504.39 1257.09 6498.6 1258.04 6492.69 1259.1C6430.82 1269.96 6383.66 1283.81 6394.57 1345.68C6404.16 1389.04 6427.27 1428.24 6460.56 1457.64C6439.15 1454.96 6426.34 1452.85 6426.34 1452.85C6426.34 1452.85 6593.03 1986 6643.04 1986C6693.06 1986 6859.76 1452.85 6859.76 1452.85C6859.76 1452.85 6846.84 1454.81 6825.43 1457.39C6859.34 1428.44 6886.09 1381.96 6891.91 1344.56" fill="#070505"/>
<path fill-rule="evenodd" clip-rule="evenodd" d="M4954.34 2646.32L4834.03 2760.37L5209.8 2908.04L4954.34 2646.32Z" fill="#812839"/>
<path fill-rule="evenodd" clip-rule="evenodd" d="M4825.69 2772.9L4487.15 3115.6L4764.24 3406.23L5237.14 2938.52L4825.69 2772.9Z" fill="#F63832"/>
<path fill-rule="evenodd" clip-rule="evenodd" d="M4948.48 3076.97L4944.14 3038.54L4925 3016.2L4886.43 3002.54L4884.86 2993.85L4874.73 2965.94L4855.91 2949.15L4818.93 2939.48L4790.24 2954.3L4771.25 2977.25L4760.78 3032.04L4758.79 3075.93L4768.52 3124.02L4796.59 3126.79L4867.03 3131.13L4928.14 3106.79L4948.45 3076.98" fill="#F1CA25"/>
<path fill-rule="evenodd" clip-rule="evenodd" d="M4506.15 3119.6L4842.13 2783.62L5201.1 2943.17L4765.42 3378.85L4506.15 3119.6ZM4881.87 2743.85L4919.57 2781.57L4867.38 2758.4L4881.87 2743.85ZM4952.58 2673.15L4999.71 2720.29L4952.58 2767.41L4905.45 2720.29L4952.58 2673.15ZM5023.28 2743.85L5070.45 2790.99L5030.56 2830.89L5004.43 2819.26L4976.2 2790.99L5023.28 2743.85ZM5141.15 2861.69L5128.45 2874.39L5063.16 2845.38L5094 2814.58L5141.15 2861.69ZM5164.71 2885.28L5174.12 2894.69L5161.09 2888.9L5164.71 2885.28ZM5258.99 2932.4L5164.71 2838.14L5117.56 2790.99L5023.28 2696.71L4952.58 2626L4858.29 2720.29L4834.73 2743.85L4459 3119.6L4765.42 3426L5164.71 3026.69L5258.99 2932.4Z" fill="#070505"/>
<path fill-rule="evenodd" clip-rule="evenodd" d="M4914.3 3088.55C4900.23 3102.61 4873.79 3110.03 4837.83 3110.03C4818.55 3109.88 4799.32 3108.07 4780.35 3104.62C4777.59 3089.21 4775.87 3073.64 4775.18 3058C4773.54 3017.04 4781.1 2986.06 4796.42 2970.73C4799.64 2967.49 4803.47 2964.93 4807.68 2963.18C4811.9 2961.43 4816.42 2960.54 4820.98 2960.55C4825.55 2960.54 4830.07 2961.43 4834.28 2963.18C4838.5 2964.93 4842.32 2967.49 4845.54 2970.73C4848.82 2973.99 4851.4 2977.87 4853.14 2982.15C4854.88 2986.43 4855.75 2991.01 4855.68 2995.63L4855.34 3029.65L4889.36 3029.28H4889.73C4894.29 3029.27 4898.81 3030.17 4903.03 3031.92C4907.25 3033.66 4911.07 3036.23 4914.29 3039.47C4917.51 3042.69 4920.07 3046.51 4921.81 3050.72C4923.55 3054.93 4924.44 3059.45 4924.42 3064C4924.44 3068.56 4923.55 3073.08 4921.82 3077.29C4920.08 3081.5 4917.52 3085.33 4914.3 3088.55ZM4937.85 3015.89C4931.54 3009.57 4924.03 3004.55 4915.78 3001.13C4907.52 2997.72 4898.67 2995.96 4889.73 2995.96H4889.01C4889.11 2986.91 4887.39 2977.93 4883.97 2969.55C4880.55 2961.16 4875.49 2953.55 4869.08 2947.15C4862.77 2940.82 4855.27 2935.8 4847.01 2932.38C4838.75 2928.96 4829.9 2927.21 4820.96 2927.22C4812.02 2927.21 4803.16 2928.96 4794.9 2932.38C4786.64 2935.8 4779.13 2940.82 4772.81 2947.15C4717.84 3002.16 4752.21 3132.77 4752.21 3132.77C4780.25 3139.56 4808.97 3143.12 4837.81 3143.38C4874.01 3143.38 4913.39 3136.6 4937.81 3112.13C4944.13 3105.81 4949.15 3098.31 4952.57 3090.05C4956 3081.79 4957.76 3072.94 4957.76 3064C4957.76 3055.05 4956 3046.2 4952.57 3037.94C4949.15 3029.68 4944.13 3022.18 4937.81 3015.86" fill="#070505"/>
<path fill-rule="evenodd" clip-rule="evenodd" d="M4347.07 939.387L4281.78 904.766L4270.37 947.026L4288.96 1073.93L4341.67 1106.16L4421.46 1066.29L4467.63 975.806L4347.07 939.41" fill="#EF204D"/>
<path fill-rule="evenodd" clip-rule="evenodd" d="M4463.94 948.305L4419.56 918.625L4317.85 891.117L4299.39 909.519L4338.76 942.137L4462.59 966.386L4463.94 948.289" fill="#E21840"/>
<path fill-rule="evenodd" clip-rule="evenodd" d="M4056.93 957.981L3983.06 956.831L3992.09 999.684L4066.38 1104.25L4127.97 1108.96L4180.91 1037.18L4180.87 935.57L4056.93 958.009" fill="#EF204D"/>
<path fill-rule="evenodd" clip-rule="evenodd" d="M4165.06 912.783L4112.04 906.508L4008.94 928.282L4000.87 953.068L4050.78 964.2L4172.09 929.455L4165.06 912.762" fill="#E21840"/>
<path fill-rule="evenodd" clip-rule="evenodd" d="M4193.73 885.631L4111.45 866.883V916.874L4169.78 1051.26L4237.48 1071.06L4313.53 1003.33L4337.48 889.808L4193.73 885.631Z" fill="#EF204D"/>
<path fill-rule="evenodd" clip-rule="evenodd" d="M4325.24 860.623L4267.43 841.078H4147.13L4132.27 866.863L4185.4 891.084L4329.15 880.95L4325.24 860.637" fill="#E21840"/>
<path fill-rule="evenodd" clip-rule="evenodd" d="M4041.66 1109.57L4226.04 1601.24L4252.06 1565.83L4328.07 1353.4L4417.65 1103.4L4041.63 1109.57" fill="#D858A3"/>
<path fill-rule="evenodd" clip-rule="evenodd" d="M4243 1103.35V1084.11C4254.53 1080.87 4265.38 1075.58 4275.03 1068.49C4281.79 1080.71 4290.54 1091.72 4300.94 1101.06C4282.27 1102.15 4262.74 1102.98 4243 1103.35ZM4361.55 1227.85L4361.13 1227.66C4360.45 1229.02 4294.14 1359.56 4160.55 1423.69C4148.84 1393.23 4136.3 1359.18 4122.96 1321.55C4120.09 1313.49 4117.26 1305.48 4114.48 1297.5C4176.56 1273.84 4233.93 1239.35 4283.94 1195.62C4306.77 1176.05 4327.81 1154.49 4346.83 1131.19C4364.67 1129.71 4381 1128.07 4395.07 1126.51C4386.48 1153.07 4374.88 1188.45 4361.55 1227.85ZM4226.04 1571.89C4212.9 1548.29 4201.16 1523.92 4190.89 1498.94C4185.14 1485.51 4179.08 1470.79 4172.7 1454.78C4229.89 1426.81 4280.88 1387.64 4322.65 1339.6C4299.58 1403.9 4278.94 1457.42 4261.21 1498.85C4250.91 1523.86 4239.17 1548.26 4226.04 1571.91V1571.89ZM4222.18 1136.84C4248.53 1136.84 4274.78 1135.96 4299.57 1134.55C4289.77 1144.89 4276.95 1157.54 4261.3 1171.12C4214.7 1211.76 4161.29 1243.88 4103.54 1265.99C4084.84 1211.65 4068.41 1161.75 4057.11 1126.86C4111.9 1133.24 4167.01 1136.56 4222.18 1136.84ZM4174.47 1069.66C4184.95 1077.34 4196.95 1082.69 4209.67 1085.37V1103.47C4188.44 1103.22 4167.69 1102.44 4148.02 1101.3C4158.54 1092.3 4167.48 1081.6 4174.47 1069.66ZM4010.41 973.874C4009.89 971.002 4009.55 968.102 4009.39 965.188C4025.4 968.232 4041.67 969.686 4057.96 969.53C4061.66 969.53 4065.52 969.43 4069.58 969.285C4091.95 981.727 4108.52 1002.48 4115.7 1027.05C4120.07 1045.41 4119.79 1064.56 4114.91 1082.79C4113.13 1083.5 4111.27 1084.03 4109.38 1084.35C4107.73 1084.64 4106.05 1084.79 4104.37 1084.79C4088.13 1084.79 4067.18 1071.5 4048.37 1049.24C4029.78 1027.58 4016.76 1001.71 4010.42 973.881L4010.41 973.874ZM4081.47 925.896C4085.68 925.172 4090.04 924.448 4094.44 923.724C4094.92 927.018 4095.46 930.34 4096.11 933.706C4077.21 936.061 4058.13 936.622 4039.12 935.385C4053.03 931.368 4067.17 928.207 4081.47 925.918V925.896ZM4305.76 862.962C4310.57 864.836 4314.88 867.793 4318.36 871.605C4275.42 876.794 4231.94 875.626 4189.34 868.137C4177.48 865.925 4165.78 862.924 4154.32 859.154C4177.08 854.419 4200.33 852.474 4223.55 853.363C4254.84 853.348 4286.43 854.521 4305.76 862.94V862.962ZM4345.24 969.481C4359.48 987.473 4366.69 1010.04 4365.51 1032.96C4363.69 1051.74 4357.25 1069.79 4346.75 1085.47H4345.54C4344.03 1085.48 4342.51 1085.37 4341.02 1085.13C4326.69 1082.91 4311.87 1068.23 4300.44 1045.31C4319.79 1022.93 4334.97 997.238 4345.24 969.481ZM4279.25 981.786C4278.01 954.862 4268.33 929.011 4251.56 907.907C4255.32 907.987 4259.18 908.03 4263.14 908.03C4284.14 908.002 4305.13 906.763 4325.99 904.317C4322.94 939.489 4311.01 973.311 4291.32 1002.61C4285.84 1010.96 4279.66 1018.84 4272.86 1026.15C4277.55 1011.84 4279.71 996.829 4279.25 981.786ZM4158.74 1003.24C4138.87 971.579 4126.03 931.057 4126.03 900.024C4125.97 894.847 4126.43 889.677 4127.39 884.591C4151.38 894.422 4176.58 900.963 4202.32 904.034C4230.18 928.487 4244.85 954.93 4245.93 982.734C4245.75 1008.27 4237.26 1033.06 4221.74 1053.34C4210.84 1052.36 4200.48 1048.12 4192.01 1041.19C4178.73 1030.65 4167.46 1017.79 4158.74 1003.24ZM4431.96 944.405C4432.87 944.991 4433.77 945.578 4434.61 946.215C4407.97 944.567 4381.57 940.149 4355.84 933.033C4356.37 930.325 4356.86 927.612 4357.28 924.926C4360.18 925.368 4363.03 925.78 4365.79 926.2C4391.6 930.261 4417.5 935.233 4431.96 944.405ZM4403.73 1049.05C4400.84 1052.42 4397.94 1055.56 4394.98 1058.46C4396.94 1050.95 4398.22 1043.28 4398.8 1035.53C4400.33 1014.39 4396.24 993.212 4386.94 974.157C4404.73 977.148 4422.68 979.08 4440.69 979.947C4433.72 1005.47 4421.08 1029.09 4403.71 1049.06L4403.73 1049.05ZM4474.93 978.544C4484.59 916.478 4433.03 902.948 4370.95 893.285C4366.94 892.648 4362.99 892.061 4359.11 891.525C4354.42 825.877 4294.31 819.992 4223.58 819.992C4153.36 819.992 4098.05 825.783 4093.07 890.208C4087.39 891.091 4081.6 892.039 4075.69 893.104C4013.82 903.962 3966.66 917.81 3977.57 979.68C3987.16 1023.04 4010.27 1062.24 4043.56 1091.64C4022.15 1088.96 4009.34 1086.85 4009.34 1086.85C4009.34 1086.85 4176.03 1620 4226.04 1620C4276.06 1620 4442.76 1086.85 4442.76 1086.85C4442.76 1086.85 4429.84 1088.81 4408.43 1091.39C4442.34 1062.44 4469.09 1015.96 4474.91 978.558" fill="#070505"/>
<path fill-rule="evenodd" clip-rule="evenodd" d="M1834.34 1484.32L1714.03 1598.37L2089.8 1746.04L1834.34 1484.32Z" fill="#812839"/>
<path fill-rule="evenodd" clip-rule="evenodd" d="M1705.69 1610.9L1367.15 1953.6L1644.24 2244.23L2117.14 1776.52L1705.69 1610.9Z" fill="#F63832"/>
<path fill-rule="evenodd" clip-rule="evenodd" d="M1828.48 1914.97L1824.14 1876.54L1805 1854.2L1766.43 1840.54L1764.86 1831.85L1754.73 1803.94L1735.91 1787.15L1698.93 1777.48L1670.24 1792.3L1651.25 1815.25L1640.78 1870.04L1638.79 1913.93L1648.52 1962.02L1676.59 1964.79L1747.03 1969.13L1808.14 1944.79L1828.45 1914.98" fill="#F1CA25"/>
<path fill-rule="evenodd" clip-rule="evenodd" d="M1386.15 1957.6L1722.13 1621.62L2081.1 1781.17L1645.42 2216.85L1386.15 1957.6ZM1761.87 1581.85L1799.57 1619.57L1747.38 1596.4L1761.87 1581.85ZM1832.58 1511.15L1879.71 1558.29L1832.58 1605.41L1785.45 1558.29L1832.58 1511.15ZM1903.28 1581.85L1950.45 1628.99L1910.56 1668.89L1884.43 1657.26L1856.2 1628.99L1903.28 1581.85ZM2021.15 1699.69L2008.45 1712.39L1943.16 1683.38L1974 1652.58L2021.15 1699.69ZM2044.71 1723.28L2054.12 1732.69L2041.09 1726.9L2044.71 1723.28ZM2138.99 1770.4L2044.71 1676.14L1997.56 1628.99L1903.28 1534.71L1832.58 1464L1738.29 1558.29L1714.73 1581.85L1339 1957.6L1645.42 2264L2044.71 1864.69L2138.99 1770.4Z" fill="#070505"/>
<path fill-rule="evenodd" clip-rule="evenodd" d="M1794.3 1926.55C1780.23 1940.61 1753.79 1948.03 1717.83 1948.03C1698.55 1947.88 1679.32 1946.07 1660.35 1942.62C1657.59 1927.21 1655.87 1911.64 1655.18 1896C1653.54 1855.04 1661.1 1824.06 1676.42 1808.73C1679.64 1805.49 1683.47 1802.93 1687.68 1801.18C1691.9 1799.43 1696.42 1798.54 1700.98 1798.55C1705.55 1798.54 1710.07 1799.43 1714.28 1801.18C1718.5 1802.93 1722.32 1805.49 1725.54 1808.73C1728.82 1811.99 1731.4 1815.87 1733.14 1820.15C1734.88 1824.43 1735.75 1829.01 1735.68 1833.63L1735.34 1867.65L1769.36 1867.28H1769.73C1774.29 1867.27 1778.81 1868.17 1783.03 1869.92C1787.25 1871.66 1791.07 1874.23 1794.29 1877.47C1797.51 1880.69 1800.07 1884.51 1801.81 1888.72C1803.55 1892.93 1804.44 1897.45 1804.42 1902C1804.44 1906.56 1803.55 1911.08 1801.82 1915.29C1800.08 1919.5 1797.52 1923.33 1794.3 1926.55ZM1817.85 1853.89C1811.54 1847.57 1804.03 1842.55 1795.78 1839.13C1787.52 1835.72 1778.67 1833.96 1769.73 1833.96H1769.01C1769.11 1824.91 1767.39 1815.93 1763.97 1807.55C1760.55 1799.16 1755.49 1791.55 1749.08 1785.15C1742.77 1778.82 1735.27 1773.8 1727.01 1770.38C1718.75 1766.96 1709.9 1765.21 1700.96 1765.22C1692.02 1765.21 1683.16 1766.96 1674.9 1770.38C1666.64 1773.8 1659.13 1778.82 1652.81 1785.15C1597.84 1840.16 1632.21 1970.77 1632.21 1970.77C1660.25 1977.56 1688.97 1981.12 1717.81 1981.38C1754.01 1981.38 1793.39 1974.6 1817.81 1950.13C1824.13 1943.81 1829.15 1936.31 1832.57 1928.05C1836 1919.79 1837.76 1910.94 1837.76 1902C1837.76 1893.05 1836 1884.2 1832.57 1875.94C1829.15 1867.68 1824.13 1860.18 1817.81 1853.86" fill="#070505"/>
<path fill-rule="evenodd" clip-rule="evenodd" d="M3078.08 905.395L3012.79 870.773L3001.37 913.033L3019.97 1039.94L3072.68 1072.17L3152.47 1032.3L3198.64 941.814L3078.08 905.418" fill="#EF204D"/>
<path fill-rule="evenodd" clip-rule="evenodd" d="M3194.95 914.312L3150.57 884.633L3048.85 857.125L3030.4 875.527L3069.77 908.145L3193.6 932.393L3194.95 914.296" fill="#E21840"/>
<path fill-rule="evenodd" clip-rule="evenodd" d="M2787.94 923.989L2714.07 922.838L2723.09 965.691L2797.39 1070.26L2858.98 1074.97L2911.92 1003.19L2911.87 901.578L2787.94 924.017" fill="#EF204D"/>
<path fill-rule="evenodd" clip-rule="evenodd" d="M2896.07 878.791L2843.05 872.516L2739.95 894.289L2731.88 919.075L2781.79 930.208L2903.1 895.463L2896.07 878.77" fill="#E21840"/>
<path fill-rule="evenodd" clip-rule="evenodd" d="M2924.74 851.639L2842.46 832.891V882.882L2900.78 1017.27L2968.49 1037.07L3044.54 969.34L3068.48 855.816L2924.74 851.639Z" fill="#EF204D"/>
<path fill-rule="evenodd" clip-rule="evenodd" d="M3056.25 826.631L2998.44 807.086H2878.14L2863.28 832.871L2916.41 857.092L3060.16 846.957L3056.25 826.645" fill="#E21840"/>
<path fill-rule="evenodd" clip-rule="evenodd" d="M2772.66 1075.58L2957.04 1567.25L2983.07 1531.84L3059.07 1319.4L3148.66 1069.41L2772.64 1075.58" fill="#D858A3"/>
<path fill-rule="evenodd" clip-rule="evenodd" d="M2974 1069.35V1050.11C2985.54 1046.88 2996.39 1041.59 3006.04 1034.49C3012.8 1046.72 3021.55 1057.73 3031.94 1067.07C3013.28 1068.16 2993.75 1068.99 2974 1069.35ZM3092.55 1193.86L3092.14 1193.67C3091.45 1195.03 3025.15 1325.57 2891.56 1389.7C2879.84 1359.23 2867.31 1325.19 2853.96 1287.56C2851.1 1279.5 2848.27 1271.48 2845.49 1263.51C2907.56 1239.85 2964.94 1205.36 3014.95 1161.63C3037.77 1142.06 3058.82 1120.5 3077.84 1097.2C3095.68 1095.72 3112.01 1094.08 3126.08 1092.52C3117.48 1119.08 3105.89 1154.45 3092.55 1193.86ZM2957.04 1537.9C2943.91 1514.29 2932.17 1489.93 2921.9 1464.95C2916.15 1451.52 2910.08 1436.8 2903.71 1420.79C2960.9 1392.82 3011.89 1353.65 3053.66 1305.61C3030.59 1369.91 3009.95 1423.42 2992.22 1464.86C2981.92 1489.87 2970.17 1514.26 2957.04 1537.91V1537.9ZM2953.19 1102.85C2979.54 1102.85 3005.79 1101.97 3030.57 1100.55C3020.77 1110.9 3007.95 1123.55 2992.31 1137.12C2945.7 1177.77 2892.3 1209.88 2834.55 1232C2815.85 1177.65 2799.42 1127.76 2788.11 1092.87C2842.91 1099.25 2898.02 1102.57 2953.19 1102.85ZM2905.47 1035.67C2915.96 1043.34 2927.96 1048.7 2940.68 1051.38V1069.48C2919.45 1069.23 2898.69 1068.45 2879.03 1067.31C2889.54 1058.31 2898.48 1047.61 2905.47 1035.67ZM2741.42 939.882C2740.9 937.01 2740.56 934.11 2740.4 931.196C2756.41 934.24 2772.67 935.693 2788.97 935.538C2792.67 935.538 2796.53 935.437 2800.59 935.293C2822.96 947.735 2839.53 968.488 2846.71 993.058C2851.07 1011.42 2850.8 1030.57 2845.92 1048.8C2844.14 1049.51 2842.28 1050.03 2840.38 1050.35C2838.73 1050.65 2837.06 1050.8 2835.38 1050.79C2819.14 1050.79 2798.19 1037.5 2779.38 1015.24C2760.79 993.585 2747.76 967.72 2741.43 939.889L2741.42 939.882ZM2812.48 891.904C2816.68 891.18 2821.05 890.456 2825.45 889.732C2825.93 893.026 2826.46 896.348 2827.12 899.714C2808.22 902.068 2789.13 902.63 2770.12 901.393C2784.04 897.375 2798.18 894.214 2812.48 891.925V891.904ZM3036.77 828.97C3041.58 830.844 3045.89 833.801 3049.37 837.612C3006.42 842.802 2962.95 841.633 2920.34 834.145C2908.49 831.933 2896.79 828.932 2885.33 825.162C2908.09 820.427 2931.33 818.482 2954.56 819.371C2985.85 819.356 3017.44 820.529 3036.77 828.948V828.97ZM3076.24 935.489C3090.49 953.48 3097.7 976.045 3096.51 998.964C3094.7 1017.75 3088.25 1035.8 3077.76 1051.48H3076.55C3075.03 1051.49 3073.52 1051.38 3072.02 1051.13C3057.7 1048.92 3042.87 1034.24 3031.44 1011.32C3050.8 988.936 3065.98 963.245 3076.24 935.489ZM3010.26 947.794C3009.02 920.87 2999.33 895.019 2982.57 873.915C2986.33 873.995 2990.19 874.038 2994.15 874.038C3015.15 874.01 3036.14 872.771 3057 870.325C3053.95 905.497 3042.02 939.319 3022.32 968.62C3016.84 976.971 3010.67 984.843 3003.86 992.153C3008.55 977.852 3010.72 962.837 3010.26 947.794ZM2889.75 969.249C2869.87 937.587 2857.03 897.065 2857.03 866.032C2856.98 860.855 2857.43 855.685 2858.4 850.598C2882.39 860.43 2907.59 866.971 2933.33 870.042C2961.19 894.495 2975.86 920.937 2976.94 948.742C2976.76 974.28 2968.26 999.067 2952.74 1019.35C2941.84 1018.36 2931.49 1014.13 2923.02 1007.2C2909.74 996.656 2898.47 983.795 2889.75 969.249ZM3162.97 910.413C3163.88 910.999 3164.77 911.586 3165.62 912.223C3138.97 910.575 3112.57 906.157 3086.84 899.04C3087.38 896.333 3087.86 893.619 3088.29 890.934C3091.19 891.375 3094.04 891.788 3096.8 892.208C3122.61 896.269 3148.51 901.241 3162.97 910.413ZM3134.74 1015.06C3131.85 1018.42 3128.95 1021.57 3125.98 1024.47C3127.95 1016.96 3129.23 1009.28 3129.81 1001.54C3131.34 980.395 3127.25 959.22 3117.95 940.165C3135.74 943.156 3153.69 945.088 3171.7 945.955C3164.73 971.478 3152.09 995.101 3134.72 1015.06L3134.74 1015.06ZM3205.93 944.551C3215.6 882.486 3164.04 868.956 3101.96 859.293C3097.95 858.656 3093.99 858.069 3090.11 857.533C3085.43 791.885 3025.31 786 2954.58 786C2884.37 786 2829.06 791.791 2824.08 856.216C2818.39 857.099 2812.61 858.047 2806.7 859.111C2744.83 869.97 2697.67 883.818 2708.57 945.688C2718.17 989.049 2741.28 1028.25 2774.57 1057.64C2753.16 1054.96 2740.34 1052.86 2740.34 1052.86C2740.34 1052.86 2907.04 1586.01 2957.05 1586.01C3007.06 1586.01 3173.76 1052.86 3173.76 1052.86C3173.76 1052.86 3160.84 1054.82 3139.44 1057.4C3173.35 1028.45 3200.1 981.968 3205.92 944.565" fill="#070505"/>
<path fill-rule="evenodd" clip-rule="evenodd" d="M1650.34 4005.33L1530.03 4119.38L1905.8 4267.05L1650.34 4005.33Z" fill="#812839"/>
<path fill-rule="evenodd" clip-rule="evenodd" d="M1521.69 4131.91L1183.15 4474.6L1460.24 4765.24L1933.14 4297.53L1521.69 4131.91Z" fill="#F63832"/>
<path fill-rule="evenodd" clip-rule="evenodd" d="M1644.48 4435.98L1640.14 4397.55L1621 4375.21L1582.43 4361.54L1580.86 4352.86L1570.73 4324.95L1551.91 4308.16L1514.93 4298.49L1486.24 4313.31L1467.25 4336.26L1456.78 4391.05L1454.79 4434.94L1464.52 4483.03L1492.59 4485.8L1563.03 4490.14L1624.14 4465.8L1644.45 4435.99" fill="#F1CA25"/>
<path fill-rule="evenodd" clip-rule="evenodd" d="M1202.15 4478.61L1538.13 4142.62L1897.1 4302.17L1461.42 4737.86L1202.15 4478.61ZM1577.87 4102.86L1615.57 4140.58L1563.38 4117.41L1577.87 4102.86ZM1648.58 4032.15L1695.71 4079.29L1648.58 4126.42L1601.45 4079.29L1648.58 4032.15ZM1719.28 4102.86L1766.45 4150L1726.56 4189.89L1700.43 4178.27L1672.2 4150L1719.28 4102.86ZM1837.15 4220.7L1824.45 4233.4L1759.16 4204.39L1790 4173.59L1837.15 4220.7ZM1860.71 4244.29L1870.12 4253.7L1857.09 4247.91L1860.71 4244.29ZM1954.99 4291.41L1860.71 4197.15L1813.56 4150L1719.28 4055.72L1648.58 3985.01L1554.29 4079.29L1530.73 4102.86L1155 4478.61L1461.42 4785.01L1860.71 4385.7L1954.99 4291.41Z" fill="#070505"/>
<path fill-rule="evenodd" clip-rule="evenodd" d="M1610.3 4447.56C1596.23 4461.61 1569.79 4469.04 1533.83 4469.04C1514.55 4468.89 1495.32 4467.07 1476.35 4463.63C1473.59 4448.22 1471.87 4432.65 1471.18 4417.01C1469.54 4376.04 1477.1 4345.07 1492.42 4329.74C1495.64 4326.5 1499.47 4323.94 1503.68 4322.19C1507.9 4320.44 1512.42 4319.54 1516.98 4319.55C1521.55 4319.54 1526.07 4320.44 1530.28 4322.19C1534.5 4323.93 1538.32 4326.5 1541.54 4329.74C1544.82 4333 1547.4 4336.88 1549.14 4341.16C1550.88 4345.44 1551.75 4350.02 1551.68 4354.64L1551.34 4388.66L1585.36 4388.29H1585.73C1590.29 4388.28 1594.81 4389.18 1599.03 4390.92C1603.25 4392.67 1607.07 4395.24 1610.29 4398.48C1613.51 4401.69 1616.07 4405.52 1617.81 4409.73C1619.55 4413.94 1620.44 4418.45 1620.42 4423.01C1620.44 4427.57 1619.55 4432.08 1617.82 4436.3C1616.08 4440.51 1613.52 4444.34 1610.3 4447.56ZM1633.85 4374.89C1627.54 4368.57 1620.03 4363.56 1611.78 4360.14C1603.52 4356.72 1594.67 4354.97 1585.73 4354.97H1585.01C1585.11 4345.92 1583.39 4336.94 1579.97 4328.55C1576.55 4320.17 1571.49 4312.55 1565.08 4306.15C1558.77 4299.83 1551.27 4294.81 1543.01 4291.39C1534.75 4287.97 1525.9 4286.22 1516.96 4286.23C1508.02 4286.21 1499.16 4287.97 1490.9 4291.39C1482.64 4294.81 1475.13 4299.83 1468.81 4306.15C1413.84 4361.17 1448.21 4491.78 1448.21 4491.78C1476.25 4498.56 1504.97 4502.12 1533.81 4502.39C1570.01 4502.39 1609.39 4495.61 1633.81 4471.14C1640.13 4464.82 1645.15 4457.32 1648.57 4449.06C1652 4440.8 1653.76 4431.94 1653.76 4423C1653.76 4414.06 1652 4405.21 1648.57 4396.95C1645.15 4388.69 1640.13 4381.18 1633.81 4374.86" fill="#070505"/>
<path fill-rule="evenodd" clip-rule="evenodd" d="M2725.07 3776.4L2659.78 3741.77L2648.37 3784.03L2666.96 3910.94L2719.67 3943.17L2799.46 3903.3L2845.63 3812.81L2725.07 3776.42" fill="#EF204D"/>
<path fill-rule="evenodd" clip-rule="evenodd" d="M2841.94 3785.31L2797.56 3755.63L2695.85 3728.12L2677.39 3746.53L2716.76 3779.14L2840.59 3803.39L2841.94 3785.3" fill="#E21840"/>
<path fill-rule="evenodd" clip-rule="evenodd" d="M2434.93 3794.99L2361.06 3793.84L2370.09 3836.69L2444.38 3941.26L2505.97 3945.97L2558.91 3874.19L2558.87 3772.58L2434.93 3795.02" fill="#EF204D"/>
<path fill-rule="evenodd" clip-rule="evenodd" d="M2543.06 3749.79L2490.04 3743.52L2386.94 3765.29L2378.87 3790.08L2428.78 3801.21L2550.09 3766.46L2543.06 3749.77" fill="#E21840"/>
<path fill-rule="evenodd" clip-rule="evenodd" d="M2571.73 3722.64L2489.45 3703.89V3753.88L2547.78 3888.27L2615.48 3908.07L2691.53 3840.34L2715.48 3726.82L2571.73 3722.64Z" fill="#EF204D"/>
<path fill-rule="evenodd" clip-rule="evenodd" d="M2703.24 3697.63L2645.43 3678.09H2525.13L2510.27 3703.87L2563.4 3728.09L2707.15 3717.96L2703.24 3697.65" fill="#E21840"/>
<path fill-rule="evenodd" clip-rule="evenodd" d="M2419.66 3946.58L2604.04 4438.25L2630.06 4402.84L2706.07 4190.4L2795.65 3940.41L2419.63 3946.58" fill="#D858A3"/>
<path fill-rule="evenodd" clip-rule="evenodd" d="M2621 3940.35V3921.11C2632.53 3917.88 2643.38 3912.59 2653.03 3905.49C2659.79 3917.72 2668.54 3928.73 2678.94 3938.07C2660.27 3939.16 2640.74 3939.99 2621 3940.35ZM2739.55 4064.86L2739.13 4064.67C2738.45 4066.03 2672.14 4196.57 2538.55 4260.7C2526.84 4230.23 2514.3 4196.19 2500.96 4158.56C2498.09 4150.5 2495.26 4142.48 2492.48 4134.51C2554.56 4110.85 2611.93 4076.36 2661.94 4032.63C2684.77 4013.06 2705.81 3991.5 2724.83 3968.2C2742.67 3966.72 2759 3965.08 2773.07 3963.52C2764.48 3990.08 2752.88 4025.45 2739.55 4064.86ZM2604.04 4408.9C2590.9 4385.29 2579.16 4360.93 2568.89 4335.95C2563.14 4322.52 2557.08 4307.8 2550.7 4291.79C2607.89 4263.82 2658.88 4224.65 2700.65 4176.61C2677.58 4240.91 2656.94 4294.42 2639.21 4335.86C2628.91 4360.87 2617.17 4385.26 2604.04 4408.91V4408.9ZM2600.18 3973.85C2626.53 3973.85 2652.78 3972.97 2677.57 3971.55C2667.77 3981.9 2654.95 3994.55 2639.3 4008.12C2592.7 4048.77 2539.29 4080.88 2481.54 4103C2462.84 4048.65 2446.41 3998.76 2435.11 3963.87C2489.9 3970.25 2545.01 3973.57 2600.18 3973.85ZM2552.47 3906.67C2562.95 3914.34 2574.95 3919.7 2587.67 3922.38V3940.48C2566.44 3940.23 2545.69 3939.45 2526.02 3938.31C2536.54 3929.31 2545.48 3918.61 2552.47 3906.67ZM2388.41 3810.88C2387.89 3808.01 2387.55 3805.11 2387.39 3802.2C2403.4 3805.24 2419.67 3806.69 2435.96 3806.54C2439.66 3806.54 2443.52 3806.44 2447.58 3806.29C2469.95 3818.73 2486.52 3839.49 2493.7 3864.06C2498.07 3882.42 2497.79 3901.57 2492.91 3919.8C2491.13 3920.51 2489.27 3921.03 2487.38 3921.35C2485.73 3921.65 2484.05 3921.8 2482.37 3921.79C2466.13 3921.79 2445.18 3908.5 2426.37 3886.24C2407.78 3864.58 2394.76 3838.72 2388.42 3810.89L2388.41 3810.88ZM2459.47 3762.9C2463.68 3762.18 2468.04 3761.46 2472.44 3760.73C2472.92 3764.03 2473.46 3767.35 2474.11 3770.71C2455.21 3773.07 2436.13 3773.63 2417.12 3772.39C2431.03 3768.38 2445.17 3765.21 2459.47 3762.93V3762.9ZM2683.76 3699.97C2688.57 3701.84 2692.88 3704.8 2696.36 3708.61C2653.42 3713.8 2609.94 3712.63 2567.34 3705.15C2555.48 3702.93 2543.78 3699.93 2532.32 3696.16C2555.08 3691.43 2578.33 3689.48 2601.55 3690.37C2632.84 3690.36 2664.43 3691.53 2683.76 3699.95V3699.97ZM2723.24 3806.49C2737.48 3824.48 2744.69 3847.04 2743.51 3869.96C2741.69 3888.75 2735.25 3906.8 2724.75 3922.48H2723.54C2722.03 3922.49 2720.51 3922.38 2719.02 3922.13C2704.69 3919.92 2689.87 3905.24 2678.44 3882.32C2697.79 3859.94 2712.97 3834.25 2723.24 3806.49ZM2657.25 3818.79C2656.01 3791.87 2646.33 3766.02 2629.56 3744.92C2633.32 3744.99 2637.18 3745.04 2641.14 3745.04C2662.14 3745.01 2683.13 3743.77 2703.99 3741.32C2700.94 3776.5 2689.01 3810.32 2669.32 3839.62C2663.84 3847.97 2657.66 3855.84 2650.86 3863.15C2655.55 3848.85 2657.71 3833.84 2657.25 3818.79ZM2536.74 3840.25C2516.87 3808.59 2504.03 3768.06 2504.03 3737.03C2503.97 3731.86 2504.43 3726.68 2505.39 3721.6C2529.38 3731.43 2554.58 3737.97 2580.32 3741.04C2608.18 3765.49 2622.85 3791.94 2623.93 3819.74C2623.75 3845.28 2615.26 3870.07 2599.74 3890.35C2588.84 3889.36 2578.48 3885.13 2570.01 3878.2C2556.73 3867.66 2545.46 3854.8 2536.74 3840.25ZM2809.96 3781.41C2810.87 3782 2811.77 3782.59 2812.61 3783.22C2785.97 3781.57 2759.57 3777.16 2733.84 3770.04C2734.37 3767.33 2734.86 3764.62 2735.28 3761.93C2738.18 3762.38 2741.03 3762.79 2743.79 3763.21C2769.6 3767.27 2795.5 3772.24 2809.96 3781.41ZM2781.73 3886.06C2778.84 3889.42 2775.94 3892.57 2772.98 3895.47C2774.94 3887.96 2776.22 3880.28 2776.8 3872.54C2778.33 3851.4 2774.24 3830.22 2764.94 3811.16C2782.73 3814.16 2800.68 3816.09 2818.69 3816.95C2811.72 3842.48 2799.08 3866.1 2781.71 3886.06L2781.73 3886.06ZM2852.93 3815.55C2862.59 3753.49 2811.03 3739.96 2748.95 3730.29C2744.94 3729.66 2740.99 3729.07 2737.11 3728.53C2732.42 3662.88 2672.31 3657 2601.58 3657C2531.36 3657 2476.05 3662.79 2471.07 3727.22C2465.39 3728.1 2459.6 3729.05 2453.69 3730.11C2391.82 3740.97 2344.66 3754.82 2355.57 3816.69C2365.16 3860.05 2388.27 3899.25 2421.56 3928.64C2400.15 3925.96 2387.34 3923.86 2387.34 3923.86C2387.34 3923.86 2554.03 4457.01 2604.04 4457.01C2654.06 4457.01 2820.76 3923.86 2820.76 3923.86C2820.76 3923.86 2807.84 3925.82 2786.43 3928.4C2820.34 3899.45 2847.09 3852.97 2852.91 3815.57" fill="#070505"/>
<path fill-rule="evenodd" clip-rule="evenodd" d="M6888.34 3692.33L6768.03 3806.38L7143.8 3954.05L6888.34 3692.33Z" fill="#812839"/>
<path fill-rule="evenodd" clip-rule="evenodd" d="M6759.69 3818.91L6421.15 4161.6L6698.24 4452.24L7171.14 3984.53L6759.69 3818.91Z" fill="#F63832"/>
<path fill-rule="evenodd" clip-rule="evenodd" d="M6882.48 4122.98L6878.14 4084.55L6859 4062.21L6820.43 4048.54L6818.86 4039.86L6808.73 4011.95L6789.91 3995.16L6752.93 3985.49L6724.24 4000.31L6705.25 4023.26L6694.78 4078.05L6692.79 4121.94L6702.52 4170.03L6730.59 4172.8L6801.03 4177.14L6862.14 4152.8L6882.45 4122.99" fill="#F1CA25"/>
<path fill-rule="evenodd" clip-rule="evenodd" d="M6440.15 4165.61L6776.13 3829.62L7135.1 3989.17L6699.42 4424.86L6440.15 4165.61ZM6815.87 3789.86L6853.57 3827.58L6801.38 3804.41L6815.87 3789.86ZM6886.58 3719.15L6933.71 3766.29L6886.58 3813.42L6839.45 3766.29L6886.58 3719.15ZM6957.28 3789.86L7004.45 3837L6964.56 3876.89L6938.43 3865.27L6910.2 3837L6957.28 3789.86ZM7075.15 3907.7L7062.45 3920.4L6997.16 3891.39L7028 3860.59L7075.15 3907.7ZM7098.71 3931.29L7108.12 3940.7L7095.09 3934.91L7098.71 3931.29ZM7192.99 3978.41L7098.71 3884.15L7051.56 3837L6957.28 3742.72L6886.58 3672.01L6792.29 3766.29L6768.73 3789.86L6393 4165.61L6699.42 4472.01L7098.71 4072.7L7192.99 3978.41Z" fill="#070505"/>
<path fill-rule="evenodd" clip-rule="evenodd" d="M6848.3 4134.56C6834.23 4148.61 6807.79 4156.04 6771.83 4156.04C6752.55 4155.89 6733.32 4154.07 6714.35 4150.63C6711.59 4135.22 6709.87 4119.65 6709.18 4104.01C6707.54 4063.04 6715.1 4032.07 6730.42 4016.74C6733.64 4013.5 6737.47 4010.94 6741.68 4009.19C6745.9 4007.44 6750.42 4006.54 6754.98 4006.55C6759.55 4006.54 6764.07 4007.44 6768.28 4009.19C6772.5 4010.93 6776.32 4013.5 6779.54 4016.74C6782.82 4020 6785.4 4023.88 6787.14 4028.16C6788.88 4032.44 6789.75 4037.02 6789.68 4041.64L6789.34 4075.66L6823.36 4075.29H6823.73C6828.29 4075.28 6832.81 4076.18 6837.03 4077.92C6841.25 4079.67 6845.07 4082.24 6848.29 4085.48C6851.51 4088.69 6854.07 4092.52 6855.81 4096.73C6857.55 4100.94 6858.44 4105.45 6858.42 4110.01C6858.44 4114.57 6857.55 4119.08 6855.82 4123.3C6854.08 4127.51 6851.52 4131.34 6848.3 4134.56ZM6871.85 4061.89C6865.54 4055.57 6858.03 4050.56 6849.78 4047.14C6841.52 4043.72 6832.67 4041.97 6823.73 4041.97H6823.01C6823.11 4032.92 6821.39 4023.94 6817.97 4015.55C6814.55 4007.17 6809.49 3999.55 6803.08 3993.15C6796.77 3986.83 6789.27 3981.81 6781.01 3978.39C6772.75 3974.97 6763.9 3973.22 6754.96 3973.23C6746.02 3973.21 6737.16 3974.97 6728.9 3978.39C6720.64 3981.81 6713.13 3986.83 6706.81 3993.15C6651.84 4048.17 6686.21 4178.78 6686.21 4178.78C6714.25 4185.56 6742.97 4189.12 6771.81 4189.39C6808.01 4189.39 6847.39 4182.61 6871.81 4158.14C6878.13 4151.82 6883.15 4144.32 6886.57 4136.06C6890 4127.8 6891.76 4118.94 6891.76 4110C6891.76 4101.06 6890 4092.21 6886.57 4083.95C6883.15 4075.69 6878.13 4068.18 6871.81 4061.86" fill="#070505"/>
<path fill-rule="evenodd" clip-rule="evenodd" d="M7963.07 3463.4L7897.78 3428.77L7886.37 3471.03L7904.96 3597.94L7957.67 3630.17L8037.46 3590.3L8083.63 3499.81L7963.07 3463.42" fill="#EF204D"/>
<path fill-rule="evenodd" clip-rule="evenodd" d="M8079.94 3472.31L8035.56 3442.63L7933.85 3415.12L7915.39 3433.53L7954.76 3466.14L8078.59 3490.39L8079.94 3472.3" fill="#E21840"/>
<path fill-rule="evenodd" clip-rule="evenodd" d="M7672.93 3481.99L7599.06 3480.84L7608.09 3523.69L7682.38 3628.26L7743.97 3632.97L7796.91 3561.19L7796.87 3459.58L7672.93 3482.02" fill="#EF204D"/>
<path fill-rule="evenodd" clip-rule="evenodd" d="M7781.06 3436.79L7728.04 3430.52L7624.94 3452.29L7616.87 3477.08L7666.78 3488.21L7788.09 3453.46L7781.06 3436.77" fill="#E21840"/>
<path fill-rule="evenodd" clip-rule="evenodd" d="M7809.73 3409.64L7727.45 3390.89V3440.88L7785.78 3575.27L7853.48 3595.07L7929.53 3527.34L7953.48 3413.82L7809.73 3409.64Z" fill="#EF204D"/>
<path fill-rule="evenodd" clip-rule="evenodd" d="M7941.24 3384.63L7883.43 3365.09H7763.13L7748.27 3390.87L7801.4 3415.09L7945.15 3404.96L7941.24 3384.65" fill="#E21840"/>
<path fill-rule="evenodd" clip-rule="evenodd" d="M7657.66 3633.58L7842.04 4125.25L7868.06 4089.84L7944.07 3877.4L8033.65 3627.41L7657.63 3633.58" fill="#D858A3"/>
<path fill-rule="evenodd" clip-rule="evenodd" d="M7859 3627.35V3608.11C7870.53 3604.88 7881.38 3599.59 7891.03 3592.49C7897.79 3604.72 7906.54 3615.73 7916.94 3625.07C7898.27 3626.16 7878.74 3626.99 7859 3627.35ZM7977.55 3751.86L7977.13 3751.67C7976.45 3753.03 7910.14 3883.57 7776.55 3947.7C7764.84 3917.23 7752.3 3883.19 7738.96 3845.56C7736.09 3837.5 7733.26 3829.48 7730.48 3821.51C7792.56 3797.85 7849.93 3763.36 7899.94 3719.63C7922.77 3700.06 7943.81 3678.5 7962.83 3655.2C7980.67 3653.72 7997 3652.08 8011.07 3650.52C8002.48 3677.08 7990.88 3712.45 7977.55 3751.86ZM7842.04 4095.9C7828.9 4072.29 7817.16 4047.93 7806.89 4022.95C7801.14 4009.52 7795.08 3994.8 7788.7 3978.79C7845.89 3950.82 7896.88 3911.65 7938.65 3863.61C7915.58 3927.91 7894.94 3981.42 7877.21 4022.86C7866.91 4047.87 7855.17 4072.26 7842.04 4095.91V4095.9ZM7838.18 3660.85C7864.53 3660.85 7890.78 3659.97 7915.57 3658.55C7905.77 3668.9 7892.95 3681.55 7877.3 3695.12C7830.7 3735.77 7777.29 3767.88 7719.54 3790C7700.84 3735.65 7684.41 3685.76 7673.11 3650.87C7727.9 3657.25 7783.01 3660.57 7838.18 3660.85ZM7790.47 3593.67C7800.95 3601.34 7812.95 3606.7 7825.67 3609.38V3627.48C7804.44 3627.23 7783.69 3626.45 7764.02 3625.31C7774.54 3616.31 7783.48 3605.61 7790.47 3593.67ZM7626.41 3497.88C7625.89 3495.01 7625.55 3492.11 7625.39 3489.2C7641.4 3492.24 7657.67 3493.69 7673.96 3493.54C7677.66 3493.54 7681.52 3493.44 7685.58 3493.29C7707.95 3505.73 7724.52 3526.49 7731.7 3551.06C7736.07 3569.42 7735.79 3588.57 7730.91 3606.8C7729.13 3607.51 7727.27 3608.03 7725.38 3608.35C7723.73 3608.65 7722.05 3608.8 7720.37 3608.79C7704.13 3608.79 7683.18 3595.5 7664.37 3573.24C7645.78 3551.58 7632.76 3525.72 7626.42 3497.89L7626.41 3497.88ZM7697.47 3449.9C7701.68 3449.18 7706.04 3448.46 7710.44 3447.73C7710.92 3451.03 7711.46 3454.35 7712.11 3457.71C7693.21 3460.07 7674.13 3460.63 7655.12 3459.39C7669.03 3455.38 7683.17 3452.21 7697.47 3449.93V3449.9ZM7921.76 3386.97C7926.57 3388.84 7930.88 3391.8 7934.36 3395.61C7891.42 3400.8 7847.94 3399.63 7805.34 3392.15C7793.48 3389.93 7781.78 3386.93 7770.32 3383.16C7793.08 3378.43 7816.33 3376.48 7839.55 3377.37C7870.84 3377.36 7902.43 3378.53 7921.76 3386.95V3386.97ZM7961.24 3493.49C7975.48 3511.48 7982.69 3534.04 7981.51 3556.96C7979.69 3575.75 7973.25 3593.8 7962.75 3609.48H7961.54C7960.03 3609.49 7958.51 3609.38 7957.02 3609.13C7942.69 3606.92 7927.87 3592.24 7916.44 3569.32C7935.79 3546.94 7950.97 3521.25 7961.24 3493.49ZM7895.25 3505.79C7894.01 3478.87 7884.33 3453.02 7867.56 3431.92C7871.32 3431.99 7875.18 3432.04 7879.14 3432.04C7900.14 3432.01 7921.13 3430.77 7941.99 3428.32C7938.94 3463.5 7927.01 3497.32 7907.32 3526.62C7901.84 3534.97 7895.66 3542.84 7888.86 3550.15C7893.55 3535.85 7895.71 3520.84 7895.25 3505.79ZM7774.74 3527.25C7754.87 3495.59 7742.03 3455.06 7742.03 3424.03C7741.97 3418.86 7742.43 3413.68 7743.39 3408.6C7767.38 3418.43 7792.58 3424.97 7818.32 3428.04C7846.18 3452.49 7860.85 3478.94 7861.93 3506.74C7861.75 3532.28 7853.26 3557.07 7837.74 3577.35C7826.84 3576.36 7816.48 3572.13 7808.01 3565.2C7794.73 3554.66 7783.46 3541.8 7774.74 3527.25ZM8047.96 3468.41C8048.87 3469 8049.77 3469.59 8050.61 3470.22C8023.97 3468.57 7997.57 3464.16 7971.84 3457.04C7972.37 3454.33 7972.86 3451.62 7973.28 3448.93C7976.18 3449.38 7979.03 3449.79 7981.79 3450.21C8007.6 3454.27 8033.5 3459.24 8047.96 3468.41ZM8019.73 3573.06C8016.84 3576.42 8013.94 3579.57 8010.98 3582.47C8012.94 3574.96 8014.22 3567.28 8014.8 3559.54C8016.33 3538.4 8012.24 3517.22 8002.94 3498.16C8020.73 3501.16 8038.68 3503.09 8056.69 3503.95C8049.72 3529.48 8037.08 3553.1 8019.71 3573.06L8019.73 3573.06ZM8090.93 3502.55C8100.59 3440.49 8049.03 3426.96 7986.95 3417.29C7982.94 3416.66 7978.99 3416.07 7975.11 3415.53C7970.42 3349.88 7910.31 3344 7839.58 3344C7769.36 3344 7714.05 3349.79 7709.07 3414.22C7703.39 3415.1 7697.6 3416.05 7691.69 3417.11C7629.82 3427.97 7582.66 3441.82 7593.57 3503.69C7603.16 3547.05 7626.27 3586.25 7659.56 3615.64C7638.15 3612.96 7625.34 3610.86 7625.34 3610.86C7625.34 3610.86 7792.03 4144.01 7842.04 4144.01C7892.06 4144.01 8058.76 3610.86 8058.76 3610.86C8058.76 3610.86 8045.84 3612.82 8024.43 3615.4C8058.34 3586.45 8085.09 3539.97 8090.91 3502.57" fill="#070505"/>
<path fill-rule="evenodd" clip-rule="evenodd" d="M547.342 3470.33L427.027 3584.38L802.798 3732.05L547.342 3470.33Z" fill="#812839"/>
<path fill-rule="evenodd" clip-rule="evenodd" d="M418.695 3596.91L80.1514 3939.6L357.245 4230.24L830.14 3762.53L418.695 3596.91Z" fill="#F63832"/>
<path fill-rule="evenodd" clip-rule="evenodd" d="M541.478 3900.98L537.135 3862.55L517.996 3840.21L479.429 3826.54L477.864 3817.86L467.729 3789.95L448.909 3773.16L411.933 3763.49L383.239 3778.31L364.251 3801.26L353.777 3856.05L351.794 3899.94L361.516 3948.03L389.594 3950.8L460.027 3955.14L521.138 3930.8L541.449 3900.99" fill="#F1CA25"/>
<path fill-rule="evenodd" clip-rule="evenodd" d="M99.1457 3943.61L435.126 3607.62L794.105 3767.17L358.418 4202.86L99.1457 3943.61ZM474.874 3567.86L512.567 3605.58L460.376 3582.41L474.874 3567.86ZM545.576 3497.15L592.715 3544.29L545.576 3591.42L498.452 3544.29L545.576 3497.15ZM616.276 3567.86L663.452 3615L623.559 3654.89L597.426 3643.27L569.196 3615L616.276 3567.86ZM734.146 3685.7L721.448 3698.4L656.162 3669.39L686.999 3638.59L734.146 3685.7ZM757.708 3709.29L767.118 3718.7L754.088 3712.91L757.708 3709.29ZM851.992 3756.41L757.708 3662.15L710.562 3615L616.276 3520.72L545.576 3450.01L451.29 3544.29L427.729 3567.86L52 3943.61L358.418 4250.01L757.708 3850.7L851.992 3756.41Z" fill="#070505"/>
<path fill-rule="evenodd" clip-rule="evenodd" d="M507.296 3912.56C493.231 3926.61 466.795 3934.04 430.833 3934.04C411.552 3933.89 392.321 3932.07 373.35 3928.63C370.595 3913.22 368.868 3897.65 368.181 3882.01C366.545 3841.04 374.095 3810.07 389.42 3794.74C392.638 3791.5 396.465 3788.94 400.681 3787.19C404.897 3785.44 409.418 3784.54 413.982 3784.55C418.546 3784.54 423.066 3785.44 427.282 3787.19C431.498 3788.93 435.324 3791.5 438.541 3794.74C441.816 3798 444.401 3801.88 446.142 3806.16C447.884 3810.44 448.746 3815.02 448.677 3819.64L448.336 3853.66L482.357 3853.29H482.727C487.291 3853.28 491.813 3854.18 496.029 3855.92C500.245 3857.67 504.072 3860.24 507.288 3863.48C510.514 3866.69 513.071 3870.52 514.81 3874.73C516.549 3878.94 517.437 3883.45 517.422 3888.01C517.44 3892.57 516.554 3897.08 514.815 3901.3C513.077 3905.51 510.522 3909.34 507.296 3912.56ZM530.852 3839.89C524.536 3833.57 517.033 3828.56 508.777 3825.14C500.52 3821.72 491.67 3819.97 482.734 3819.97H482.011C482.108 3810.92 480.395 3801.94 476.973 3793.55C473.55 3785.17 468.489 3777.55 462.083 3771.15C455.769 3764.83 448.266 3759.81 440.008 3756.39C431.75 3752.97 422.897 3751.22 413.959 3751.23C405.017 3751.21 396.16 3752.97 387.898 3756.39C379.636 3759.81 372.131 3764.83 365.814 3771.15C310.843 3826.17 345.213 3956.78 345.213 3956.78C373.249 3963.56 401.967 3967.12 430.811 3967.39C467.005 3967.39 506.391 3960.61 530.807 3936.14C537.133 3929.82 542.151 3922.32 545.575 3914.06C548.998 3905.8 550.76 3896.94 550.76 3888C550.76 3879.06 548.998 3870.21 545.575 3861.95C542.151 3853.69 537.133 3846.18 530.807 3839.86" fill="#070505"/>
<path fill-rule="evenodd" clip-rule="evenodd" d="M1622.07 3241.4L1556.78 3206.77L1545.37 3249.03L1563.96 3375.94L1616.67 3408.17L1696.46 3368.3L1742.63 3277.81L1622.07 3241.42" fill="#EF204D"/>
<path fill-rule="evenodd" clip-rule="evenodd" d="M1738.94 3250.31L1694.56 3220.63L1592.85 3193.12L1574.39 3211.53L1613.76 3244.14L1737.59 3268.39L1738.94 3250.3" fill="#E21840"/>
<path fill-rule="evenodd" clip-rule="evenodd" d="M1331.93 3259.99L1258.06 3258.84L1267.09 3301.69L1341.38 3406.26L1402.97 3410.97L1455.91 3339.19L1455.87 3237.58L1331.93 3260.02" fill="#EF204D"/>
<path fill-rule="evenodd" clip-rule="evenodd" d="M1440.06 3214.79L1387.04 3208.52L1283.94 3230.29L1275.87 3255.08L1325.78 3266.21L1447.09 3231.46L1440.06 3214.77" fill="#E21840"/>
<path fill-rule="evenodd" clip-rule="evenodd" d="M1468.73 3187.64L1386.45 3168.89V3218.88L1444.78 3353.27L1512.48 3373.07L1588.53 3305.34L1612.48 3191.82L1468.73 3187.64Z" fill="#EF204D"/>
<path fill-rule="evenodd" clip-rule="evenodd" d="M1600.24 3162.63L1542.43 3143.09H1422.13L1407.27 3168.87L1460.4 3193.09L1604.15 3182.96L1600.24 3162.65" fill="#E21840"/>
<path fill-rule="evenodd" clip-rule="evenodd" d="M1316.66 3411.58L1501.04 3903.25L1527.06 3867.84L1603.07 3655.4L1692.65 3405.41L1316.63 3411.58" fill="#D858A3"/>
<path fill-rule="evenodd" clip-rule="evenodd" d="M1518 3405.35V3386.11C1529.53 3382.88 1540.38 3377.59 1550.03 3370.49C1556.79 3382.72 1565.54 3393.73 1575.94 3403.07C1557.27 3404.16 1537.74 3404.99 1518 3405.35ZM1636.55 3529.86L1636.13 3529.67C1635.45 3531.03 1569.14 3661.57 1435.55 3725.7C1423.84 3695.23 1411.3 3661.19 1397.96 3623.56C1395.09 3615.5 1392.26 3607.48 1389.48 3599.51C1451.56 3575.85 1508.93 3541.36 1558.94 3497.63C1581.77 3478.06 1602.81 3456.5 1621.83 3433.2C1639.67 3431.72 1656 3430.08 1670.07 3428.52C1661.48 3455.08 1649.88 3490.45 1636.55 3529.86ZM1501.04 3873.9C1487.9 3850.29 1476.16 3825.93 1465.89 3800.95C1460.14 3787.52 1454.08 3772.8 1447.7 3756.79C1504.89 3728.82 1555.88 3689.65 1597.65 3641.61C1574.58 3705.91 1553.94 3759.42 1536.21 3800.86C1525.91 3825.87 1514.17 3850.26 1501.04 3873.91V3873.9ZM1497.18 3438.85C1523.53 3438.85 1549.78 3437.97 1574.57 3436.55C1564.77 3446.9 1551.95 3459.55 1536.3 3473.12C1489.7 3513.77 1436.29 3545.88 1378.54 3568C1359.84 3513.65 1343.41 3463.76 1332.11 3428.87C1386.9 3435.25 1442.01 3438.57 1497.18 3438.85ZM1449.47 3371.67C1459.95 3379.34 1471.95 3384.7 1484.67 3387.38V3405.48C1463.44 3405.23 1442.69 3404.45 1423.02 3403.31C1433.54 3394.31 1442.48 3383.61 1449.47 3371.67ZM1285.41 3275.88C1284.89 3273.01 1284.55 3270.11 1284.39 3267.2C1300.4 3270.24 1316.67 3271.69 1332.96 3271.54C1336.66 3271.54 1340.52 3271.44 1344.58 3271.29C1366.95 3283.73 1383.52 3304.49 1390.7 3329.06C1395.07 3347.42 1394.79 3366.57 1389.91 3384.8C1388.13 3385.51 1386.27 3386.03 1384.38 3386.35C1382.73 3386.65 1381.05 3386.8 1379.37 3386.79C1363.13 3386.79 1342.18 3373.5 1323.37 3351.24C1304.78 3329.58 1291.76 3303.72 1285.42 3275.89L1285.41 3275.88ZM1356.47 3227.9C1360.68 3227.18 1365.04 3226.46 1369.44 3225.73C1369.92 3229.03 1370.46 3232.35 1371.11 3235.71C1352.21 3238.07 1333.13 3238.63 1314.12 3237.39C1328.03 3233.38 1342.17 3230.21 1356.47 3227.93V3227.9ZM1580.76 3164.97C1585.57 3166.84 1589.88 3169.8 1593.36 3173.61C1550.42 3178.8 1506.94 3177.63 1464.34 3170.15C1452.48 3167.93 1440.78 3164.93 1429.32 3161.16C1452.08 3156.43 1475.33 3154.48 1498.55 3155.37C1529.84 3155.36 1561.43 3156.53 1580.76 3164.95V3164.97ZM1620.24 3271.49C1634.48 3289.48 1641.69 3312.04 1640.51 3334.96C1638.69 3353.75 1632.25 3371.8 1621.75 3387.48H1620.54C1619.03 3387.49 1617.51 3387.38 1616.02 3387.13C1601.69 3384.92 1586.87 3370.24 1575.44 3347.32C1594.79 3324.94 1609.97 3299.25 1620.24 3271.49ZM1554.25 3283.79C1553.01 3256.87 1543.33 3231.02 1526.56 3209.92C1530.32 3209.99 1534.18 3210.04 1538.14 3210.04C1559.14 3210.01 1580.13 3208.77 1600.99 3206.32C1597.94 3241.5 1586.01 3275.32 1566.32 3304.62C1560.84 3312.97 1554.66 3320.84 1547.86 3328.15C1552.55 3313.85 1554.71 3298.84 1554.25 3283.79ZM1433.74 3305.25C1413.87 3273.59 1401.03 3233.06 1401.03 3202.03C1400.97 3196.86 1401.43 3191.68 1402.39 3186.6C1426.38 3196.43 1451.58 3202.97 1477.32 3206.04C1505.18 3230.49 1519.85 3256.94 1520.93 3284.74C1520.75 3310.28 1512.26 3335.07 1496.74 3355.35C1485.84 3354.36 1475.48 3350.13 1467.01 3343.2C1453.73 3332.66 1442.46 3319.8 1433.74 3305.25ZM1706.96 3246.41C1707.87 3247 1708.77 3247.59 1709.61 3248.22C1682.97 3246.57 1656.57 3242.16 1630.84 3235.04C1631.37 3232.33 1631.86 3229.62 1632.28 3226.93C1635.18 3227.38 1638.03 3227.79 1640.79 3228.21C1666.6 3232.27 1692.5 3237.24 1706.96 3246.41ZM1678.73 3351.06C1675.84 3354.42 1672.94 3357.57 1669.98 3360.47C1671.94 3352.96 1673.22 3345.28 1673.8 3337.54C1675.33 3316.4 1671.24 3295.22 1661.94 3276.16C1679.73 3279.16 1697.68 3281.09 1715.69 3281.95C1708.72 3307.48 1696.08 3331.1 1678.71 3351.06L1678.73 3351.06ZM1749.93 3280.55C1759.59 3218.49 1708.03 3204.96 1645.95 3195.29C1641.94 3194.66 1637.99 3194.07 1634.11 3193.53C1629.42 3127.88 1569.31 3122 1498.58 3122C1428.36 3122 1373.05 3127.79 1368.07 3192.22C1362.39 3193.1 1356.6 3194.05 1350.69 3195.11C1288.82 3205.97 1241.66 3219.82 1252.57 3281.69C1262.16 3325.05 1285.27 3364.25 1318.56 3393.64C1297.15 3390.96 1284.34 3388.86 1284.34 3388.86C1284.34 3388.86 1451.03 3922.01 1501.04 3922.01C1551.06 3922.01 1717.76 3388.86 1717.76 3388.86C1717.76 3388.86 1704.84 3390.82 1683.43 3393.4C1717.34 3364.45 1744.09 3317.97 1749.91 3280.57" fill="#070505"/>
</svg>
